<svg width="669" height="160" viewBox="0 0 669 160" fill="none" xmlns="http://www.w3.org/2000/svg">
<path d="M259.999 155.2L268.799 146.1C270.499 144.4 271.799 142.7 271.799 140.9C271.799 138.8 270.399 137.5 268.399 137.5C266.399 137.5 264.899 138.7 264.099 140.5L259.799 138C261.499 134.3 264.799 132.5 268.299 132.5C272.699 132.5 276.799 135.5 276.799 140.6C276.799 143.7 274.999 146.4 272.599 148.9L267.499 154H277.199V158.9H259.899V155.2H259.999Z" fill="#FD6400"/>
<path d="M309.1 146C309.1 138 312.9 132.6 319.4 132.6C326 132.6 329.7 138.1 329.7 146C329.7 154 326 159.4 319.4 159.4C312.9 159.5 309.1 154 309.1 146ZM324.7 146C324.7 140.5 322.9 137.5 319.4 137.5C315.9 137.5 314.2 140.5 314.2 146C314.2 151.5 316 154.5 319.4 154.5C322.8 154.5 324.7 151.5 324.7 146Z" fill="#FD6400"/>
<path d="M360.999 155.2L369.799 146.1C371.499 144.4 372.799 142.7 372.799 140.9C372.799 138.8 371.399 137.5 369.399 137.5C367.399 137.5 365.899 138.7 365.099 140.5L360.799 138C362.499 134.3 365.799 132.5 369.299 132.5C373.699 132.5 377.799 135.5 377.799 140.6C377.799 143.7 375.999 146.4 373.599 148.9L368.499 154H378.199V158.9H360.899V155.2H360.999Z" fill="#FD6400"/>
<path d="M410.098 155.2L418.898 146.1C420.598 144.4 421.898 142.7 421.898 140.9C421.898 138.8 420.498 137.5 418.498 137.5C416.498 137.5 414.998 138.7 414.198 140.5L409.898 138C411.598 134.3 414.898 132.5 418.398 132.5C422.798 132.5 426.898 135.5 426.898 140.6C426.898 143.7 425.098 146.4 422.698 148.9L417.598 154H427.298V158.9H409.998V155.2H410.098Z" fill="#FD6400"/>
<path d="M112.7 48.6C110.5 50.6 108.4 52.6 106.3 54.7C105 55.9 103.9 57.4 103 59C102.6 59.9 102.5 61.2 101.3 61.2C101.1 61.2 100.9 61.2 100.7 61.1C98.8999 60.8 97.4 59.9 97 58C96.9 57.6 96.9 57.2 96.9 56.8C96.9 55.7 97.2 54.5 97.7 53.5C99.3999 49.8 102 46.8 104.7 43.9C109.8 38.2 115.1 32.5 120.3 26.7C123.9 22.6 127.3 18.2 129.6 13.1C130 12.2 130.7 11.2 130.7 10.3C130.7 9.99999 130.6 9.8 130.4 9.5C130.2 9.3 130 9.20001 129.6 9.20001C128.8 9.20001 127.8 9.7 127 10C109.7 15.2 93.5 23 78 32.2C60.9 42.4 44.7 53.8 30.1 67.4C25.5 71.7 21.1 76.4 17.4 81.5C16.2 83.2 15.1 85 14.6 87C14.4 87.6 14.2999 88.1 14.2999 88.6C14.2999 89.6 14.9 89.9 16.6 90.1C18.5 90.3 20.3 90.4 22.2 90.4C27.1 90.4 32 89.9 36.9 89.4C49.2 88.3 61.4 87 73.7 87C76.7 87 79.6 87.1 82.6 87.3C88.4 87.6 94.2 87.9 99.7 89.7C101.8 90.3 103.8 91.2 105.4 92.6C107.4 94.1 108.4 95.7 108.4 97.6C108.4 98.6 108.1 99.9 107.5 101.1C106.2 103.8 104.3 106.1 102.3 108.2C96.4999 114.8 89.8 120.5 83.5 126.8C79.6 130.7 75.8999 134.7 72.2 138.9C71.8999 139.2 71.7 139.5 71.5 139.9C70.5 141.2 69.8 141.9 68.6 141.9C67.9 141.9 67.1 141.6 66.1 141C64.4 140.1 63.7 139.3 63.7 138C63.7 137.3 64 136.5 64.4 135.6C67 130.2 70.8 125.8 74.6 121.2C79.7 114.7 85.5 108.7 90.9 102.4C92.6 100.5 94.2 98.6 95.5 96.3C95.8 95.8 96 95.3 96 95C96 94.5 95.6 94.2 94.4 94.1C89.4 93.7 84.3 93.6 80.1 93.6C67.1 93.9 54.9 95.5 42.7 96.7C37.5 97.2 32.4 97.7 27.1 97.7C23.8 97.7 20.4 97.5 17.1 96.9C12.8 96.1 8.79998 94.8 5.09998 92.5C1.69998 90.2 0 87.5 0 84.4C0 82.7 0.599951 80.7 1.69995 78.8C5.19995 72.5 9.99993 67.4 15.2999 62.6C43.0999 37.2 74.2999 17.2 109.7 3.89999C114.3 2.19999 119 0.800012 124 0.200012C125 0.100012 126 0 127 0C131.8 0 136.3 1.19999 140.6 3.89999C143.7 5.99999 145.3 8.29999 145.3 11.3C145.3 12.8 144.9 14.4 144 16.3C142.1 20.3 139.1 23.7 136.2 27C128.9 34.7 120.6 41.5 112.7 48.6Z" fill="#0E7D74"/>
<path d="M167.401 76.0001C167.401 77.1001 166.101 77.2001 165.301 77.6001C164.301 78.0001 163.401 78.2001 162.401 78.2001C160.901 78.2001 159.401 77.8001 158.101 77.1001C157.101 76.6001 156.101 76.3 155.101 76.3C153.701 76.3 152.401 76.8001 151.001 77.7001C146.301 80.6001 142.601 84.5001 138.801 88.5001C133.801 93.7001 129.601 99.4001 125.701 105.4C124.901 106.5 124.001 107.1 123.001 107.1C122.601 107.1 122.001 106.9 121.401 106.8C118.001 105.5 116.301 103.6 116.301 100.9C116.301 99.9001 116.601 98.7001 117.001 97.5001C120.501 88.2001 125.901 79.9 131.501 71.8C133.101 69.6 134.701 67.5001 136.601 65.6001C137.501 64.7001 138.401 64.3 139.401 64.3C140.501 64.3 141.801 64.9001 143.401 66.0001C144.901 67.0001 145.601 68.0001 145.601 69.1001C145.601 69.8001 145.301 70.5001 144.801 71.4001C144.201 72.5001 143.601 73.7001 142.601 75.4001C144.201 74.4001 145.201 73.7001 146.201 73.1001C147.901 72.1001 149.601 71.4001 151.201 71.4001C152.801 71.4001 154.201 71.8001 155.701 72.7001C157.401 73.7001 159.301 74.3 161.301 74.3C162.001 74.3 162.701 74.2001 163.501 74.0001C163.701 73.9001 163.801 73.9001 164.101 73.9001C164.301 73.9001 164.501 73.9001 164.701 74.0001C166.001 74.3001 167.201 74.9001 167.401 76.0001Z" fill="#0E7D74"/>
<path d="M187.401 91.9999C185.001 91.9999 182.001 90.9999 178.501 88.2999C176.701 92.3999 175.001 96.3999 175.001 100.9V101.5C175.101 103.2 175.301 103.8 176.001 103.8C176.401 103.8 176.901 103.6 177.601 103.5C183.801 101.6 189.401 98.4999 195.201 95.3999C205.401 89.9999 215.401 84.4999 225.501 79.0999C227.201 78.1999 228.801 77.4999 230.501 77.0999C231.201 76.8999 231.801 76.7999 232.401 76.7999C233.601 76.7999 234.701 77.0999 235.801 78.0999C236.201 78.3999 236.601 78.7999 236.601 79.0999C236.601 79.3999 236.301 79.6999 235.801 80.0999C221.801 89.0999 208.501 98.9999 193.701 106.8C190.001 108.8 186.101 110.5 181.801 110.9C181.301 111 180.801 111 180.201 111C175.701 111 171.801 109.3 168.301 106.5C165.601 104.2 164.301 101.3 164.301 98.0999C164.301 97.0999 164.501 95.8999 164.701 94.7999C166.801 85.7999 171.501 77.9999 176.601 70.5999C178.901 67.0999 181.701 64.0999 185.001 61.3999C187.401 59.3999 190.101 58.3999 192.701 58.3999C195.101 58.3999 197.701 59.2999 200.101 60.9999C202.701 62.7999 204.001 65.2999 204.001 67.9999C204.001 68.7999 203.901 69.5999 203.701 70.2999C202.201 76.5999 199.401 82.3999 195.401 87.2999C193.301 89.8999 190.801 91.9999 187.401 91.9999ZM182.101 81.7999C182.101 82.7999 183.201 83.7999 183.801 84.4999C184.001 84.6999 184.101 84.7999 184.301 84.7999C184.801 84.7999 185.301 84.0999 185.701 83.6999C190.601 78.9999 193.701 73.3999 195.601 66.8999C195.701 66.4999 195.901 65.8999 195.901 65.4999C195.901 65.1999 195.801 64.8999 195.701 64.5999C195.501 64.6999 195.301 64.6999 195.201 64.7999C189.601 69.1999 185.601 74.9999 182.301 81.0999C182.201 81.3999 182.101 81.5999 182.101 81.7999Z" fill="#0E7D74"/>
<path d="M240.5 91.9999C238.1 91.9999 235.1 90.9999 231.6 88.2999C229.8 92.3999 228.1 96.3999 228.1 100.9V101.5C228.2 103.2 228.4 103.8 229.1 103.8C229.5 103.8 230 103.6 230.7 103.5C236.9 101.6 242.5 98.4999 248.3 95.3999C258.5 89.9999 268.5 84.4999 278.6 79.0999C280.3 78.1999 281.9 77.4999 283.6 77.0999C284.3 76.8999 284.9 76.7999 285.5 76.7999C286.7 76.7999 287.8 77.0999 288.9 78.0999C289.3 78.3999 289.7 78.7999 289.7 79.0999C289.7 79.3999 289.4 79.6999 288.9 80.0999C274.9 89.0999 261.6 98.9999 246.8 106.8C243.1 108.8 239.2 110.5 234.9 110.9C234.4 111 233.9 111 233.3 111C228.8 111 224.9 109.3 221.4 106.5C218.7 104.2 217.4 101.3 217.4 98.0999C217.4 97.0999 217.6 95.8999 217.8 94.7999C219.9 85.7999 224.6 77.9999 229.7 70.5999C232 67.0999 234.8 64.0999 238.1 61.3999C240.5 59.3999 243.2 58.3999 245.8 58.3999C248.2 58.3999 250.8 59.2999 253.2 60.9999C255.8 62.7999 257.1 65.2999 257.1 67.9999C257.1 68.7999 257 69.5999 256.8 70.2999C255.3 76.5999 252.5 82.3999 248.5 87.2999C246.4 89.8999 243.9 91.9999 240.5 91.9999ZM235.2 81.7999C235.2 82.7999 236.3 83.7999 236.9 84.4999C237.1 84.6999 237.2 84.7999 237.4 84.7999C237.9 84.7999 238.4 84.0999 238.8 83.6999C243.7 78.9999 246.8 73.3999 248.7 66.8999C248.8 66.4999 249 65.8999 249 65.4999C249 65.1999 248.9 64.8999 248.8 64.5999C248.6 64.6999 248.4 64.6999 248.3 64.7999C242.7 69.1999 238.7 74.9999 235.4 81.0999C235.3 81.3999 235.2 81.5999 235.2 81.7999Z" fill="#0E7D74"/>
<path d="M322.199 98.1999C322.199 97.5999 322.199 96.8999 322.299 96.2999C322.699 91.2999 324.699 86.8999 326.899 82.5999C326.799 82.4999 326.699 82.4999 326.599 82.4999C326.299 82.4999 326.199 82.7999 325.999 82.7999L325.499 83.2999C320.599 87.9999 316.099 92.9999 311.699 97.9999C311.199 98.4999 310.699 98.9999 310.299 99.4999C309.299 100.6 308.099 101.8 306.599 101.8C306.199 101.8 305.699 101.7 305.199 101.5C302.799 100.4 300.899 98.8999 300.699 95.9999C300.599 95.2999 300.599 94.5999 300.599 93.9999C300.599 90.8999 301.399 87.8999 302.399 84.9999C302.499 84.6999 302.699 84.4999 302.699 84.0999C302.699 83.8999 302.699 83.7999 302.599 83.6999C299.199 86.7999 296.099 90.0999 293.099 93.4999C288.899 98.2999 284.899 103.1 280.799 107.9C279.099 109.8 277.799 110.7 276.299 110.7C275.099 110.7 273.799 110.2 271.999 109.1C268.999 107.2 267.699 105.5 267.699 102.9C267.699 101.9 267.899 100.8 268.199 99.3999C269.199 95.3999 270.899 91.5999 272.699 87.7999C275.899 81.4999 279.499 75.4999 283.599 69.8999C284.599 68.4999 285.399 67.7999 286.499 67.7999C287.199 67.7999 287.999 68.0999 288.899 68.5999C291.499 69.8999 292.699 71.0999 292.699 72.8999C292.699 73.7999 292.399 74.8999 291.799 76.1999C290.299 79.5999 288.799 82.8999 287.399 86.2999C287.499 86.3999 287.599 86.3999 287.699 86.4999C291.199 83.2999 294.599 80.1999 297.999 76.8999C301.299 73.8999 304.699 70.8999 308.399 68.3999C309.299 67.7999 310.399 67.3999 311.399 67.3999C314.099 67.3999 316.999 69.0999 317.699 71.6999C317.799 71.9999 317.899 72.2999 317.899 72.6999C317.899 73.6999 317.499 74.4999 316.999 75.3999C315.299 79.2999 313.499 83.0999 311.799 86.9999C311.599 87.3999 311.499 87.9999 311.499 88.4999V88.7999C314.799 85.5999 318.099 82.4999 321.499 79.1999C324.999 75.9999 328.299 72.4999 332.199 69.6999C333.399 68.7999 334.399 68.3999 335.199 68.3999C336.199 68.3999 336.999 68.7999 338.199 69.5999C339.599 70.5999 340.299 71.4999 340.299 72.8999C340.299 73.5999 340.199 74.2999 339.899 75.1999C338.199 79.9999 336.399 84.6999 334.799 89.3999C333.799 92.0999 332.899 94.6999 332.499 97.6999C333.599 97.3999 334.299 96.6999 334.999 96.1999C342.599 91.1999 350.199 85.9999 358.199 81.4999C359.799 80.5999 361.499 79.8999 363.199 79.0999C363.699 78.7999 364.199 78.7999 364.699 78.7999C365.499 78.7999 366.299 79.0999 366.999 79.5999C367.999 80.2999 368.599 80.7999 368.599 81.3999C368.599 81.8999 368.199 82.4999 367.299 83.1999C357.699 91.0999 347.699 98.6999 337.699 106.2C335.699 107.7 333.899 108.5 332.099 108.5C329.699 108.5 327.299 107.2 324.599 104.4C322.699 102.8 322.199 100.5 322.199 98.1999Z" fill="#0E7D74"/>
<path d="M386.6 94.4001C386.6 93.9001 386.6 93.4001 386.7 92.8001C385.7 93.7001 385.1 94.2001 384.5 94.7001C378.9 99.7001 373.2 104.6 366.9 108.7C364.7 110.1 362.6 110.7 360.6 110.7C358 110.7 355.6 109.7 353 108C350.3 106.2 349.1 104.2 349.1 101.5C349.1 100.7 349.2 99.8001 349.4 98.8001C350.2 95.2001 351.7 92.1001 353.7 89.1001C359.1 80.6001 365.6 73.0001 373.6 66.8001C376.2 64.7001 379.1 62.9001 382.4 62.0001C383.4 61.7001 384.4 61.6001 385.4 61.6001C388.5 61.6001 391.3 63.0001 393.8 65.1001C394.9 66.1001 395.5 67.2001 395.5 68.4001C395.5 69.1001 395.3 69.7001 395.1 70.4001C394.4 72.2001 393.5 74.0001 392.7 76.0001C393.2 75.9001 393.8 75.8001 394.4 75.8001C396.3 75.8001 398.1 76.6001 399.5 77.8001C400.4 78.5001 400.8 79.2001 400.8 80.1001C400.8 80.5001 400.7 81.0001 400.5 81.4001C399.2 84.6001 398 87.9001 396.8 91.2001C396.6 91.8001 396.3 92.4001 396.3 93.2001C396.3 93.4001 396.3 93.5001 396.4 93.8001C401.1 91.4001 405.5 88.5001 410 85.7001C414.7 82.7001 419.2 79.4001 424.1 76.8001C425.4 76.1001 426.7 75.3001 428.2 75.3001C428.8 75.3001 429.5 75.5001 430.2 75.8001C431.3 76.4001 431.9 76.9001 431.9 77.5001C431.9 77.9001 431.5 78.5001 430.7 79.2001C424 85.6001 416.7 91.4001 409.1 96.7001C406.6 98.5001 403.9 100 401 101.2C399.4 101.8 398 102.2 396.6 102.2C394.3 102.2 392.2 101.5 390.1 100.2C388 98.9001 386.6 97.0001 386.6 94.4001ZM388.5 79.8001C388.8 79.5001 388.9 79.3001 388.9 79.1001C388.9 78.8001 388.6 78.6001 388.1 78.4001C387.3 78.1001 386.8 77.5001 386.8 76.7001C386.8 76.4001 386.9 76.0001 387.1 75.6001C387.7 74.1001 387.8 72.4001 387.8 70.1001C378.4 78.0001 371.4 87.3001 365.3 97.5001C365.6 97.6001 365.7 97.6001 365.8 97.6001H365.9C373.9 92.4001 381.3 86.3001 388.5 79.8001Z" fill="#0E7D74"/>
<path d="M452.9 93.6999V92.7999C453.2 88.3999 454.7 84.2999 455.9 79.4999C455 80.1999 454.4 80.4999 453.9 80.9999C446.3 87.2999 439.1 94.2999 432.3 101.5C430.1 103.8 428 106.2 425.5 108.4C424.2 109.5 422.9 110 421.6 110C419.9 110 418.1 109.2 416.5 108.3C413.7 106.8 412.4 104.9 412.4 102.3C412.4 102 412.5 101.7 412.5 101.3C412.8 98.1999 413.7 95.1999 415 92.3999C419.5 82.0999 425.3 72.2999 432.1 63.2999C433.6 61.3999 435 60.3999 436.5 60.3999C437.9 60.3999 439.5 61.1999 441.5 62.5999C442.4 63.1999 442.8 63.8999 442.8 64.6999C442.8 65.1999 442.6 65.7999 442.3 66.3999C437.9 74.1999 433.5 82.0999 429.7 90.2999C429.4 90.7999 429 91.2999 429 92.1999V92.3999C434.5 87.3999 439.8 82.6999 445.1 77.9999C447.8 75.5999 450.6 73.1999 453.7 71.3999C455.1 70.5999 456.4 70.1999 457.8 70.1999C458.8 70.1999 459.8 70.3999 460.8 70.7999C464.1 72.1999 465.6 73.7999 465.6 76.6999C465.6 77.3999 465.5 78.2999 465.3 79.0999C464.4 83.3999 463.5 87.4999 462.5 91.6999C462.3 92.5999 462.2 93.3999 462.2 94.4999C463.4 94.4999 464.4 93.8999 465.2 93.4999C475.5 88.6999 485.4 83.3999 495.4 78.0999C496.3 77.6999 497.1 77.3999 497.8 77.3999C498.9 77.3999 499.9 77.7999 500.8 78.4999C501.6 78.9999 502 79.4999 502 79.9999C502 80.3999 501.7 80.8999 501 81.4999C498.5 83.6999 495.8 85.4999 493 87.2999C486.4 91.5999 479.6 95.5999 472.7 99.0999C470.9 100.1 469.1 100.8 467.1 101.5C465.8 101.9 464.5 102.2 463.3 102.2C461 102.2 458.7 101.4 456.5 100.1C454.1 98.5999 452.9 96.3999 452.9 93.6999Z" fill="#0E7D74"/>
<path d="M563.999 72.5001C563.999 73.2001 563.199 73.4001 562.799 73.6001C556.499 77.6001 549.999 81.6001 543.699 85.7001L524.699 98.2001C523.399 99.1001 522.499 100 521.899 101.5C515.599 115 509.399 128.4 502.499 141.6C501.099 144.3 499.499 146.8 497.699 149.2C494.599 153.7 490.099 155.7 484.799 155.9H483.599C477.299 155.9 470.899 154.7 464.699 153.7C461.699 153.2 458.499 152.7 455.599 152.2C452.899 151.7 450.499 150.5 448.399 148.6C447.299 147.5 446.699 146.4 446.699 145.3C446.699 144.4 446.999 143.5 447.799 142.3C450.099 138.8 453.399 136.3 456.799 133.8C467.099 125.8 478.599 119.7 489.599 113C496.399 108.9 503.099 104.8 509.799 100.8C510.899 100.2 511.599 99.3001 512.099 98.2001C512.999 95.8001 513.999 93.4001 514.999 91.1001C510.799 94.7001 507.099 98.4001 502.899 101.7C502.299 102.1 501.699 102.6 501.199 103C499.399 104.5 497.599 105.2 495.699 105.2C494.099 105.2 492.599 104.7 490.899 103.7C487.799 101.9 486.599 99.3001 486.599 96.1001C486.599 95.5001 486.599 94.9 486.699 94.3C487.299 89.3 489.199 84.7001 491.999 80.5001C495.899 74.6001 500.499 69.4001 506.499 65.6001C508.599 64.2001 510.799 63.1001 513.299 62.6001C514.099 62.4001 514.899 62.3 515.599 62.3C518.599 62.3 521.199 63.6001 524.299 66.6001C525.499 65.3001 526.299 64.7001 527.399 64.7001C528.199 64.7001 529.099 65.0001 530.199 65.5001C531.299 66.0001 532.499 66.7001 533.299 67.6001C534.299 68.6001 534.999 69.7001 534.999 71.0001C534.999 71.4001 534.899 72.0001 534.699 72.5001C532.999 77.8001 530.799 82.7001 528.499 87.6001C528.199 88.3001 527.799 89.1001 527.299 90.4001C528.499 89.6001 529.199 89.2001 529.899 88.7001C539.599 82.9001 549.199 76.9 559.199 71.8C559.999 71.4 560.799 70.8 561.699 70.8C561.899 70.8 562.099 70.8001 562.399 70.9001C563.099 71.2001 563.899 71.4001 564.099 72.2001C563.899 72.4001 563.999 72.4001 563.999 72.5001ZM506.099 111C502.099 113.6 498.099 116.2 494.199 118.8C483.799 125.7 472.999 132 463.199 139.8C460.899 141.7 458.599 143.6 456.699 145.9C456.399 146.2 456.299 146.6 456.299 146.8C456.299 147.1 456.599 147.3 457.299 147.4C458.499 147.6 459.699 147.8 460.999 148.1C466.699 149.1 472.399 150.3 478.299 150.3H479.999C483.399 150.1 486.199 149 488.299 146.4C489.299 145.2 490.399 143.9 491.199 142.5C497.199 132.6 501.399 121.7 506.099 111ZM521.099 70.9001C521.099 70.3001 520.799 69.7001 520.199 69.1001C519.899 68.8001 519.599 68.7001 519.299 68.7001C518.599 68.7001 517.999 69.5 517.399 69.8C513.699 72.2 510.799 75.3001 507.899 78.5001C503.599 83.5001 499.699 88.7001 497.599 95.1001C498.299 94.6001 498.999 94.1001 499.599 93.5001C505.199 88.7001 510.499 83.5001 515.499 78.1001C517.199 76.4001 518.499 74.5001 520.099 72.7001C520.899 72.1001 521.099 71.5001 521.099 70.9001Z" fill="#0E7D74"/>
<path d="M578.801 94.4001C578.801 93.9001 578.801 93.4001 578.901 92.8001C577.901 93.7001 577.301 94.2001 576.701 94.7001C571.101 99.7001 565.401 104.6 559.101 108.7C556.901 110.1 554.801 110.7 552.801 110.7C550.201 110.7 547.801 109.7 545.201 108C542.501 106.2 541.301 104.2 541.301 101.5C541.301 100.7 541.401 99.8001 541.601 98.8001C542.401 95.2001 543.901 92.1001 545.901 89.1001C551.301 80.6001 557.801 73.0001 565.801 66.8001C568.401 64.7001 571.301 62.9001 574.601 62.0001C575.601 61.7001 576.601 61.6001 577.601 61.6001C580.701 61.6001 583.501 63.0001 586.001 65.1001C587.101 66.1001 587.701 67.2001 587.701 68.4001C587.701 69.1001 587.501 69.7001 587.301 70.4001C586.601 72.2001 585.701 74.0001 584.901 76.0001C585.401 75.9001 586.001 75.8001 586.601 75.8001C588.501 75.8001 590.201 76.6001 591.701 77.8001C592.601 78.5001 593.001 79.2001 593.001 80.1001C593.001 80.5001 592.901 81.0001 592.701 81.4001C591.401 84.6001 590.201 87.9001 589.001 91.2001C588.801 91.8001 588.501 92.4001 588.501 93.2001C588.501 93.4001 588.501 93.5001 588.601 93.8001C593.301 91.4001 597.701 88.5001 602.201 85.7001C606.901 82.7001 611.401 79.4001 616.301 76.8001C617.601 76.1001 618.901 75.3001 620.401 75.3001C621.001 75.3001 621.701 75.5001 622.401 75.8001C623.501 76.4001 624.101 76.9001 624.101 77.5001C624.101 77.9001 623.701 78.5001 622.901 79.2001C616.201 85.6001 608.901 91.4001 601.301 96.7001C598.801 98.5001 596.101 100 593.201 101.2C591.601 101.8 590.201 102.2 588.801 102.2C586.501 102.2 584.401 101.5 582.301 100.2C580.001 98.9001 578.801 97.0001 578.801 94.4001ZM580.701 79.8001C581.001 79.5001 581.101 79.3001 581.101 79.1001C581.101 78.8001 580.801 78.6001 580.301 78.4001C579.501 78.1001 579.001 77.5001 579.001 76.7001C579.001 76.4001 579.101 76.0001 579.301 75.6001C579.901 74.1001 580.001 72.4001 580.001 70.1001C570.601 78.0001 563.601 87.3001 557.501 97.5001C557.801 97.6001 557.901 97.6001 558.001 97.6001H558.101C566.201 92.4001 573.501 86.3001 580.701 79.8001Z" fill="#0E7D74"/>
<path d="M602 118.4C601.9 117.7 601.9 117 601.9 116.2C601.9 111.5 603.1 107 604.8 102.6C609.9 88.9 616.7 76 623.3 63C628.7 52.3 634.5 41.7 640.8 31.5C641.5 30.5 642.2 29.3 642.9 28.3C643.9 27.1 645.2 26.5 646.7 26.5C648.5 26.5 650.4 27.4 651.1 29.2C651.2 29.5 651.3 29.7 651.3 30.1C651.3 30.7 651 31.3 650.8 31.9C648.7 36.2 646.6 40.3 644.5 44.5C634.9 63.6 625 82.6 617 102.4C614.7 108 612.8 113.6 612.4 119.7C612.4 120.1 612.2 120.7 612.2 121.2C612.2 121.5 612.3 121.8 612.6 122C612.7 122.1 612.8 122.1 612.9 122.1C613.4 122.1 614 121.3 614.6 121C621.7 116.1 628.1 110.1 634.8 104.8C643.1 98.3 651.2 91.5 660.2 85.9C661.5 85 662.9 84.3 664.3 83.8C664.7 83.6 665.3 83.5 665.7 83.5C666.2 83.5 666.7 83.6 667.3 83.8C668.5 84.3 669 84.8 669 85.4C669 85.9 668.7 86.4 667.8 87.1C655.5 97.1 643.8 107.7 632.4 118.6C628.8 122 625.2 125.1 621.1 127.7C618.9 129 616.8 130.1 614.5 130.1C608 129.9 602.6 124.8 602 118.4Z" fill="#0E7D74"/>
<path d="M185.7 24.1001C185.7 32.0001 179.9 38.1001 172.2 38.1001H161.1V10.1001H172.2C179.9 10.1001 185.7 16.2001 185.7 24.1001ZM180.4 24.1001C180.4 18.9001 177 15.4001 172.2 15.4001H166.6V32.8001H172.2C177 32.8001 180.4 29.3001 180.4 24.1001Z" fill="black"/>
<path d="M227.3 32.8001V38.1001H210V10.1001H227.1V15.4001H215.5V21.4001H226.1V26.6001H215.5V32.9001H227.3V32.8001Z" fill="black"/>
<path d="M250.1 31.8L254.8 29C255.8 31.6 257.8 33.3 261.2 33.3C264.5 33.3 265.7 31.9 265.7 30.3C265.7 28.2 263.8 27.4 259.7 26.2C255.4 25 251.3 23.2 251.3 17.8C251.3 12.5 255.7 9.5 260.5 9.5C265.1 9.5 268.6 11.9 270.5 15.8L265.9 18.5C264.9 16.4 263.4 14.9 260.5 14.9C258.2 14.9 256.8 16.1 256.8 17.7C256.8 19.4 257.9 20.3 262.1 21.6C266.5 23 271.3 24.5 271.3 30.2C271.3 35.4 267.1 38.6 261.1 38.6C255.4 38.7 251.7 35.9 250.1 31.8Z" fill="black"/>
<path d="M300.6 10.1001V38.1001H295.1V10.1001H300.6Z" fill="black"/>
<path d="M353.7 25.2C353.7 33.3 348 38.6 339.9 38.6C331.1 38.6 324.9 32.1 324.9 24.1C324.9 16 331.2 9.5 339.6 9.5C344.9 9.5 349.4 12.2 351.8 16L347.1 18.7C345.8 16.5 343 14.8 339.6 14.8C334.3 14.8 330.4 18.7 330.4 24C330.4 29.2 334.1 33.1 340 33.1C344.4 33.1 347.2 31 348.2 27.8H339.7V22.9H353.7V25.2Z" fill="black"/>
<path d="M399.7 10.1001V38.1001H395.5L383.5 21.0001V38.1001H378V10.1001H382.2L394.2 27.2001V10.1001H399.7Z" fill="black"/>
<path d="M474.299 15.4001H466.699V38.1001H461.199V15.4001H453.699V10.1001H474.299V15.4001Z" fill="black"/>
<path d="M494.9 24.1C494.9 15.9 501.3 9.5 509.4 9.5C517.5 9.5 524 15.9 524 24.1C524 32.3 517.5 38.7 509.4 38.7C501.3 38.7 494.9 32.3 494.9 24.1ZM518.4 24.1C518.4 18.7 514.4 14.9 509.4 14.9C504.4 14.9 500.4 18.7 500.4 24.1C500.4 29.5 504.4 33.3 509.4 33.3C514.4 33.3 518.4 29.5 518.4 24.1Z" fill="black"/>
<path d="M547.799 28.9999V10.2H553.299V28.5999C553.299 31.2999 554.699 33.3999 558.499 33.3999C562.299 33.3999 563.699 31.3999 563.699 28.5999V10.2H569.199V28.9999C569.199 34.9999 564.599 38.7 558.499 38.7C552.299 38.7 547.799 34.9999 547.799 28.9999Z" fill="black"/>
<path d="M604.3 28.4001H600.1V38.1001H594.6V10.1001H605.8C611 10.1001 615.1 14.3001 615.1 19.4001C615.1 22.9001 612.9 26.1001 609.7 27.6001L615.9 38.2001H609.9L604.3 28.4001ZM600.1 23.6001H605.8C607.9 23.6001 609.6 21.8001 609.6 19.4001C609.6 17.0001 607.9 15.3001 605.8 15.3001H600.1V23.6001Z" fill="black"/>
</svg>
