<svg width="604" height="354" viewBox="0 0 604 354" fill="none" xmlns="http://www.w3.org/2000/svg">
<path d="M39.5008 96.3002C43.6008 100.4 45.7008 105.4 45.7008 111.3V173.2H29.2008V111.3C29.2008 108.2 27.6008 106.6 24.5008 106.6H22.0008C18.9008 106.6 17.3008 108.2 17.3008 111.3V170.5C17.3008 173.8 17.6008 176.7 18.3008 179.2C18.9008 181.7 19.9008 183.9 21.1008 185.8C22.3008 187.7 23.7008 189.4 25.2008 190.9C26.8008 192.4 28.5008 193.9 30.3008 195.6C32.0008 197.1 33.7008 198.7 35.5008 200.4C37.3008 202.1 39.0008 204.2 40.6008 206.5C42.2008 208.8 43.4008 211.4 44.3008 214.2C45.2008 217 45.7008 220.3 45.7008 224V288.7C45.7008 294.6 43.6008 299.6 39.5008 303.7C35.4008 307.8 30.4008 309.9 24.5008 309.9H22.0008C16.1008 309.9 11.1008 307.8 7.00079 303.7C2.90079 299.6 0.800781 294.6 0.800781 288.7V226.8H17.3008V288.7C17.3008 291.8 18.9008 293.4 22.0008 293.4H24.5008C27.6008 293.4 29.2008 291.8 29.2008 288.7V224C29.2008 220.3 28.4008 217.5 26.9008 215.5C25.3008 213.5 22.8008 211 19.3008 208.1C17.3008 206.4 15.2008 204.5 13.1008 202.3C11.0008 200.1 9.00081 197.5 7.20081 194.6C5.40081 191.7 3.80081 188.3 2.70081 184.4C1.50081 180.5 0.900787 176 0.900787 170.6V111.4C0.900787 105.5 3.0008 100.5 7.1008 96.4002C11.2008 92.3002 16.2008 90.2002 22.1008 90.2002H24.6008C30.4008 90.1002 35.4008 92.2002 39.5008 96.3002Z" fill="#E52560"/>
<path d="M93.1012 201.3C98.2012 205.9 101.101 211.5 101.601 218.1L110.701 307H93.9012L85.1012 217C84.9012 215 84.2012 213.3 83.0012 211.9C81.8012 210.5 80.4012 209.5 78.7012 208.7V307H62.2012V202.7V92.9001H85.9012C91.8012 92.9001 96.8012 95.0002 100.901 99.1002C105.001 103.2 107.101 108.2 107.101 114.1V181.5C107.101 186.1 105.801 190.2 103.201 193.7C100.701 197.3 97.3012 199.8 93.1012 201.3ZM78.8011 191.7H86.0012C87.5012 191.7 88.6012 191.2 89.4012 190.3C90.2012 189.4 90.6012 188.3 90.6012 187V114.1C90.6012 111 89.0012 109.4 85.9012 109.4H78.7012V191.7H78.8011Z" fill="#E52560"/>
<path d="M158.601 92.9001V108H143.701V192.2H158.601V207.3H143.701V291.8H158.601V307H127.201V92.9001H158.601Z" fill="#E52560"/>
<path d="M206.502 92.9001V108H191.602V192.2H206.502V207.3H191.602V291.8H206.502V307H175.102V92.9001H206.502Z" fill="#E52560"/>
<path d="M282.2 92.9001H303.7V307H287.2V160.6L271.4 307H255.2L239.5 160.6V307H223V92.9001H244.2L263.2 240.7L282.2 92.9001Z" fill="#E52560"/>
<path d="M344.101 90.1001C350.001 90.1001 355.001 92.2001 359.101 96.3001C363.201 100.4 365.301 105.4 365.301 111.3V307H348.801V232.4H336.701V307H320.201V111.3C320.201 105.4 322.301 100.4 326.401 96.3001C330.501 92.2001 335.501 90.1001 341.401 90.1001H344.101ZM348.801 217.3V111.3C348.801 109.8 348.301 108.7 347.401 107.9C346.501 107.1 345.401 106.7 344.101 106.7H341.301C340.001 106.7 338.901 107.1 338.001 107.9C337.101 108.7 336.601 109.9 336.601 111.3V217.3H348.801Z" fill="#E52560"/>
<path d="M415.701 92.9001H432.201V307H416.801L395.001 175.2L398.001 307.1H381.801V92.9001H396.701L418.401 224.8L415.701 92.9001Z" fill="#E52560"/>
<path d="M487.401 98.8001C491.501 102.9 493.601 107.9 493.601 113.8V175.7H477.101V113.8C477.101 112.5 476.701 111.4 475.901 110.5C475.101 109.6 473.901 109.1 472.501 109.1H470.001C468.501 109.1 467.401 109.6 466.601 110.5C465.801 111.4 465.401 112.5 465.401 113.8V288.6C465.401 289.9 465.801 291 466.601 291.9C467.401 292.8 468.601 293.3 470.001 293.3H472.501C474.001 293.3 475.101 292.8 475.901 291.9C476.701 291 477.101 289.9 477.101 288.6V211H471.001V194.5H493.601V288.6C493.601 294.5 491.501 299.5 487.401 303.6C483.301 307.7 478.301 309.8 472.401 309.8H469.901C464.001 309.8 459.001 307.7 454.901 303.6C450.801 299.5 448.701 294.5 448.701 288.6V113.8C448.701 107.9 450.801 102.9 454.901 98.8001C459.001 94.7001 464.001 92.6001 469.901 92.6001H472.401C478.301 92.6001 483.301 94.6001 487.401 98.8001Z" fill="#E52560"/>
<path d="M534.002 90.1001C539.902 90.1001 544.902 92.2001 549.002 96.3001C553.102 100.4 555.202 105.4 555.202 111.3V307H538.702V232.4H526.602V307H510.102V111.3C510.102 105.4 512.202 100.4 516.302 96.3001C520.402 92.2001 525.402 90.1001 531.302 90.1001H534.002ZM538.702 217.3V111.3C538.702 109.8 538.202 108.7 537.302 107.9C536.402 107.1 535.302 106.7 534.002 106.7H531.202C529.902 106.7 528.802 107.1 527.902 107.9C527.002 108.7 526.502 109.9 526.502 111.3V217.3H538.702Z" fill="#E52560"/>
<path d="M588.301 291.9H603.201V307H571.801V92.9001H588.301V291.9Z" fill="#E52560"/>
<path d="M97.1001 27.0001C96.9001 29.2001 96.5001 31.3001 96.1001 33.5001C95.7001 35.6001 95.2001 37.9001 94.8001 40.2001C96.8001 37.1001 98.7001 34.0001 100.6 31.1001C102.5 28.1001 104.4 25.2001 106.4 22.2001C108.9 18.5001 111.8 15.1001 114.8 11.9001C117.9 8.70009 121.5 6.00011 125.6 3.60011C126.2 3.30011 126.7 3.0001 127.2 2.8001C127.7 2.5001 128.3 2.30011 128.8 2.10011C133.3 0.100106 137.6 -0.299906 141.5 0.900094C145.4 2.10009 148.6 4.8001 150.9 9.0001C152.7 12.3001 153.9 15.6001 154.5 19.1001C155.1 22.5001 155.3 26.1001 155.2 29.7001C154.8 38.8001 152.7 47.1001 149 54.7001C145.3 62.3001 140.1 69.4001 133.5 76.0001C129.6 79.9001 125.5 83.5001 121.1 86.9001C116.8 90.2001 112.1 93.2001 107.1 95.7001C103.8 97.4001 100.4 98.5001 96.7001 99.2001C95.2001 99.5001 93.8001 99.4001 92.4001 99.0001C91.0001 98.6001 89.9001 97.9001 88.9001 97.0001C87.9001 96.1001 87.1001 95.0001 86.6001 93.7001C86.1001 92.4001 85.9001 91.1001 86.2001 89.7001C86.3001 89.2001 86.6001 88.7001 87.0001 88.2001C87.5001 87.7001 88.0001 87.4001 88.4001 87.2001C88.9001 87.1001 89.4001 87.2001 90.0001 87.5001C90.6001 87.9001 91.2001 88.2001 91.8001 88.5001C92.0001 88.6001 92.1001 88.9001 92.3001 89.4001C92.8001 90.4001 93.2001 91.2001 93.6001 91.7001C94.0001 92.2001 94.4001 92.6001 94.9001 92.8001C95.4001 93.0001 96.0001 93.0001 96.6001 92.8001C97.3001 92.6001 98.2001 92.3001 99.3001 91.9001C103.3 90.3001 107 88.4001 110.4 86.1001C113.8 83.9001 117.1 81.4001 120.3 78.8001C123.8 76.0001 127 73.0001 130 69.8001C133 66.6001 135.7 63.2001 138.1 59.5001C142.2 53.2001 145.1 46.7001 146.6 40.0001C148.1 33.3001 148.2 26.3001 146.8 19.1001C146.5 17.6001 146 16.2001 145.4 14.9001C144.8 13.5001 144 12.2001 143.3 10.9001C142.3 9.20009 140.9 8.00009 139.2 7.40009C137.5 6.80009 135.7 6.9001 133.8 7.7001C131.7 8.6001 129.7 9.6001 127.8 10.7001C125.9 11.8001 124.1 13.1001 122.4 14.5001C118.3 17.8001 114.9 21.4001 112.1 25.5001C109.3 29.6001 106.7 33.8001 104.3 38.2001C101.2 43.9001 98.2001 49.5001 95.3001 55.2001C92.4001 60.9001 89.6001 66.6001 86.7001 72.3001C86.2001 73.2001 85.9001 74.2001 85.6001 75.2001C85.4001 76.2001 85.0001 77.2001 84.6001 78.2001C83.7001 80.7001 82.2001 81.6001 80.1001 81.0001C78.9001 80.6001 78.1001 80.1001 77.8001 79.3001C77.4001 78.5001 77.4001 77.7001 77.6001 76.7001C78.0001 75.0001 78.5001 73.4001 79.0001 71.9001C79.6001 70.3001 80.1001 68.7001 80.6001 67.1001C83.1001 58.0001 85.4001 49.0001 87.5001 39.9001C89.5001 30.8001 91.0001 21.6001 91.9001 12.3001C92.0001 11.3001 91.9001 10.2001 91.7001 8.90009C91.4001 7.70009 91.5001 6.60011 92.1001 5.60011C92.7001 4.70011 93.6001 4.1001 94.7001 4.0001C95.8001 3.9001 96.8001 4.1001 97.6001 4.8001C98.4001 5.5001 98.8001 6.5001 98.7001 7.7001C98.5001 11.0001 98.3001 14.2001 98.0001 17.5001C97.9001 20.5001 97.5001 23.8001 97.1001 27.0001Z" fill="#FFFFFE"/>
<path d="M186.899 74.3001C187.499 75.1001 187.699 76.1001 187.399 77.2001C187.099 78.3001 186.299 79.2001 184.999 79.8001C180.499 81.9001 176.099 84.0001 171.699 86.1001C167.299 88.2001 162.799 90.2001 158.299 92.2001C156.699 92.9001 155.099 93.6001 153.499 94.2001C151.899 94.8001 150.199 95.3001 148.499 95.6001C146.699 96.0001 145.199 96.1001 143.699 95.8001C142.299 95.5001 141.099 94.9001 140.099 94.1001C139.099 93.3001 138.399 92.2001 137.999 90.9001C137.599 89.6001 137.499 88.1001 137.899 86.5001C138.999 81.6001 140.899 77.2001 143.699 73.3001C146.399 69.3001 149.799 65.7001 153.899 62.5001C155.399 61.3001 156.999 60.6001 158.699 60.6001C160.399 60.6001 161.999 61.0001 163.399 62.0001C164.799 62.9001 165.699 64.0001 166.099 65.5001C166.599 67.0001 166.499 68.5001 165.899 70.2001C164.899 72.7001 163.599 74.8001 161.699 76.5001C159.899 78.2001 157.699 79.7001 155.299 81.0001C153.999 81.6001 152.799 81.8001 151.499 81.5001C150.299 81.3001 149.099 80.4001 147.899 79.0001C147.299 80.5001 146.699 81.9001 146.199 83.2001C145.699 84.5001 145.199 85.8001 144.799 87.0001C144.599 87.8001 144.699 88.4001 145.199 88.7001C145.699 89.1001 146.399 89.1001 147.199 88.8001C148.299 88.4001 149.399 88.1001 150.499 87.8001C151.599 87.5001 152.599 87.1001 153.699 86.5001C158.299 84.4001 162.899 82.3001 167.499 80.2001C172.099 78.1001 176.699 76.0001 181.299 73.9001C182.599 73.3001 183.699 73.0001 184.599 73.1001C185.499 73.0001 186.299 73.5001 186.899 74.3001ZM151.499 74.7001C151.299 75.0001 151.399 75.2001 151.599 75.5001C151.799 75.7001 152.099 75.8001 152.399 75.6001C153.999 75.1001 155.399 74.2001 156.799 72.8001C158.099 71.5001 158.899 70.1001 159.099 68.7001C159.199 68.3001 159.099 68.1001 158.799 67.9001C158.499 67.8001 158.199 67.8001 157.899 67.9001C157.299 68.2001 156.699 68.6001 156.099 69.1001C155.499 69.6001 154.799 70.2001 154.199 70.8001C153.599 71.4001 153.099 72.1001 152.599 72.8001C152.199 73.5001 151.799 74.1001 151.499 74.7001Z" fill="#FFFFFE"/>
<path d="M217.801 71.2002C218.201 71.6002 218.401 71.9002 218.501 72.3002C218.501 72.7002 218.501 73.2002 218.301 73.8002C218.201 74.0002 217.901 74.3002 217.401 74.7002C216.901 75.1002 216.301 75.5002 215.701 75.8002C215.101 76.2002 214.401 76.5002 213.801 76.8002C213.201 77.1002 212.701 77.3002 212.501 77.4002C209.801 78.4002 207.101 79.6002 204.601 80.9002C202.001 82.2002 199.701 83.7002 197.701 85.4002C196.601 86.3002 195.801 87.1002 195.501 88.0002C195.101 88.9002 195.101 90.0002 195.401 91.3002C196.001 94.1002 195.901 96.8002 195.001 99.2002C194.101 101.6 192.301 103.8 189.601 105.6C189.301 105.8 189.001 106 188.601 106.2C188.301 106.4 187.901 106.5 187.501 106.7C186.101 107.3 184.801 107.6 183.601 107.7C182.301 107.8 181.101 107.5 179.801 106.7C178.401 105.9 177.601 104.9 177.101 103.7C176.701 102.5 176.501 101.2 176.701 99.8002C176.901 97.3002 177.701 95.0002 179.001 93.1002C180.301 91.1002 182.001 89.4002 184.101 87.9002C185.101 87.1002 185.701 86.4002 185.801 85.7002C185.901 85.0002 185.601 84.2002 185.001 83.3002C184.001 81.8002 183.101 80.4002 182.201 79.0002C181.301 77.6002 180.401 76.2002 179.501 74.7002C178.601 73.1002 177.801 71.5002 176.901 69.9002C176.001 68.3002 175.301 66.7002 174.801 65.0002C173.801 62.0002 173.701 59.1002 174.301 56.3002C174.901 53.5002 176.201 51.2002 178.101 49.2002C180.001 47.2002 182.301 45.8002 185.201 44.8002C188.101 43.8002 191.201 43.5002 194.701 44.0002C196.501 44.2002 198.301 44.7002 200.001 45.3002C201.201 45.8002 202.101 46.6002 202.801 47.6002C203.501 48.7002 203.701 49.7002 203.301 50.8002C203.101 51.3002 202.801 51.8002 202.401 52.4002C202.001 52.9002 201.501 53.3002 200.901 53.4002C200.501 53.5002 199.901 53.5002 199.201 53.1002C198.501 52.8002 198.001 52.4002 197.801 52.1002C197.301 51.2002 196.701 50.6002 196.101 50.4002C195.401 50.1002 194.601 49.9002 193.801 49.9002C191.401 49.8002 189.301 50.0002 187.501 50.7002C185.701 51.4002 184.201 52.3002 183.101 53.5002C182.001 54.7002 181.401 56.2002 181.101 58.0002C180.901 59.8002 181.101 61.7002 181.801 63.7002C182.401 65.3002 183.201 66.8002 184.101 68.3002C185.001 69.8002 185.901 71.3002 186.701 72.7002C187.101 73.4002 187.601 74.3002 188.301 75.4002C188.901 76.5002 189.601 77.5002 190.201 78.4002C190.801 79.4002 191.401 80.2002 191.901 80.9002C192.401 81.6002 192.701 82.0002 192.701 82.0002C193.501 81.2002 194.601 80.4002 196.201 79.5002C197.701 78.6002 199.301 77.8002 201.001 77.0002C202.701 76.2002 204.401 75.5002 206.001 74.8002C207.601 74.1002 209.001 73.5002 210.201 73.0002C211.201 72.6002 211.901 72.2002 212.301 71.9002C212.701 71.6002 213.201 71.3002 213.901 71.0002C214.501 70.8002 215.301 70.7002 216.001 70.7002C216.801 70.7002 217.401 70.8002 217.801 71.2002ZM184.801 100.7C186.201 100 187.301 99.2002 187.901 98.3002C188.501 97.3002 188.801 96.0002 188.601 94.4002C188.601 93.9002 188.401 93.8002 188.001 94.2002C187.001 95.1002 186.101 96.1002 185.501 97.1002C184.901 98.1002 184.501 99.2002 184.301 100.4C184.301 100.7 184.401 100.8 184.801 100.7Z" fill="#FFFFFE"/>
<path d="M215.3 67.5001C215.9 66.4001 216.9 65.8001 218.2 65.7001C219.5 65.6001 220.5 65.9001 221.1 66.7001C221.4 67.1001 221.6 67.6001 221.8 68.2001C222 68.8001 221.9 69.4001 221.6 69.7001C219.5 72.7001 217.9 76.0001 216.8 79.4001C215.8 82.8001 214.8 86.3001 213.9 89.7001C213.7 90.3001 213.6 90.8 213.5 91.3C213.4 91.8 213.3 92.4001 213.1 92.9001C212.8 93.8001 212.3 94.4001 211.7 94.9001C211.1 95.4001 210.2 95.5001 209.1 95.4001C208.1 95.3001 207.4 94.8001 207 94.1001C206.6 93.4001 206.5 92.5001 206.5 91.4001C207.4 87.3001 208.5 83.2001 209.8 79.2001C211.2 75.3001 213 71.4001 215.3 67.5001ZM224.4 51.3C225.5 51.3 226.4 51.7001 227.1 52.4001C227.8 53.1001 228.2 54.0001 228.2 55.0001C228.2 56.6001 227.7 57.8 226.8 58.8C225.9 59.8 224.7 60.3 223.2 60.3C222 60.3 220.9 59.8 219.7 58.8C218.6 57.8 218 56.8 218 55.8C218 55.3 218.2 54.8001 218.6 54.2001C219 53.7001 219.5 53.2001 220.2 52.7001C220.8 52.3001 221.5 51.9001 222.3 51.6001C223 51.4001 223.7 51.3 224.4 51.3Z" fill="#FFFFFE"/>
<path d="M272.7 78.4002C273 79.3002 273 80.1002 272.7 81.0002C272.4 81.8002 271.6 82.5002 270.3 82.9002C264.2 85.0002 258.8 87.9002 254.1 91.7002C253.4 92.3002 252.7 93.0002 252.1 93.7002C251.5 94.5002 251 95.2002 250.7 96.0002C248.6 101.7 246.6 107.5 244.6 113.2C242.6 118.9 240.6 124.7 238.5 130.4C238.1 131.6 237.7 132.9 237.2 134.1C236.7 135.3 236.2 136.5 235.5 137.7C234.9 138.9 234 140 233 140.9C232 141.8 230.6 142.2 228.8 142C227.1 141.9 225.9 141.3 225 140.3C224.1 139.3 223.4 138.1 223 136.8C222.3 134.6 221.9 132.4 221.9 130.2C221.9 128 222.1 125.8 222.6 123.5C223.9 117.4 226 111.8 228.9 106.7C231.8 101.6 236 97.0002 241.4 93.0002C243.5 91.5002 245 89.6002 246.1 87.5002C247.1 85.4002 247.8 82.9002 248 80.3002C245.5 81.8002 243.1 83.3002 240.7 84.8002C238.3 86.3002 235.9 87.8002 233.4 89.2002C231.5 90.4002 229.5 91.2002 227.6 91.6002C226.2 92.0002 225 92.0002 223.8 91.7002C222.6 91.4002 221.7 90.9002 220.9 90.2002C220.1 89.5002 219.6 88.6002 219.3 87.5002C219 86.4002 219.1 85.3002 219.6 84.0002C220.1 82.8002 220.7 81.5002 221.4 80.3002C222.1 79.1002 223 77.9002 223.9 76.9002C227.7 73.1002 231.7 69.6002 235.7 66.6002C238 64.9002 240.4 64.0002 243 63.8002C245.5 63.6002 248.1 64.3002 250.6 66.1002C251 65.9002 251.3 65.6002 251.6 65.4002C251.9 65.1002 252.2 64.9002 252.6 64.8002C254 64.1002 255.3 64.3002 256.5 65.2002C257.7 66.1002 258.2 67.4002 257.9 69.1002C257.7 70.8002 257.3 72.4002 256.9 73.9002C256.5 75.5002 256.1 77.1002 255.7 78.7002C255.5 79.2002 255.4 79.7002 255.3 80.3002C255.2 80.8002 255 81.5002 254.8 82.3002C255.5 81.9002 256.1 81.6002 256.5 81.4002C256.9 81.2002 257.4 81.0002 257.8 80.9002C259.4 80.2002 261 79.4002 262.6 78.7002C264.2 78.0002 265.8 77.3002 267.4 76.7002C268.8 76.2002 269.9 76.1002 270.7 76.4002C271.8 76.9002 272.4 77.5002 272.7 78.4002ZM245.1 73.3002C245.5 73.0002 245.8 72.6002 245.9 72.0002C246 71.4002 246 70.9002 245.8 70.6002C245.6 70.4002 245.3 70.2002 244.7 70.1002C244.1 70.0002 243.6 70.0002 243.1 70.0002C242.1 70.1002 241.2 70.5002 240.6 71.1002C238.5 73.0002 236.5 74.8002 234.6 76.6002C232.6 78.4002 230.7 80.3002 228.7 82.1002C228.4 82.4002 228.1 82.7002 227.9 83.1002C227.7 83.5002 227.5 83.8002 227.4 84.2002C227.2 84.4002 227.2 84.6002 227.4 84.7002C227.5 84.8002 227.7 84.9002 228 84.8002C228.3 84.7002 228.6 84.6002 228.9 84.4002C229.2 84.3002 229.5 84.1002 229.7 83.9002C230 83.7002 230.2 83.6002 230.2 83.5002C232.7 81.8002 235.3 80.1002 237.7 78.4002C240.2 76.8002 242.7 75.1002 245.1 73.3002ZM230.6 132.8C232.2 128 233.8 123.2 235.4 118.4C237 113.6 238.7 108.7 240.5 103.6C238.8 105.1 237.2 107.1 235.7 109.6C234.2 112.2 232.9 114.9 231.9 117.8C230.9 120.7 230.2 123.5 229.9 126.2C229.7 128.9 229.9 131.1 230.6 132.8Z" fill="#FFFFFE"/>
<path d="M321.9 78.9002C322.7 79.7002 323.1 80.6002 323 81.5002C322.9 82.4002 322.4 83.4002 321.3 84.3002C319.4 86.0002 317.3 87.4002 314.9 88.4002C312.6 89.4002 310 90.0002 307.3 90.1002C304.8 90.2002 302.7 89.7002 301 88.6002C299.2 87.4002 297.9 85.8002 297.1 83.8002C296.5 82.3002 295.9 80.8002 295.5 79.3002C295.1 77.7002 294.7 76.2002 294.3 74.7002C294.1 74.1002 294 73.5002 293.9 73.0002C293.8 72.4002 293.6 71.8002 293.5 71.0002C293.4 70.6002 293.2 70.3002 292.8 70.1002C292.4 70.0002 292 70.0002 291.6 70.3002C291 70.7002 290.4 71.0002 289.9 71.4002C289.4 71.8002 289 72.2002 288.6 72.6002C286.6 74.9002 284.7 77.3002 282.8 79.7002C280.9 82.1002 279 84.5002 277.1 86.8002C276.2 87.9002 275.3 89.0002 274.5 90.1002C273.6 91.2002 272.7 92.3002 271.8 93.3002C271 94.1002 270.1 94.7002 269.1 95.1002C268.1 95.5002 266.9 95.4002 265.6 94.8002C264.2 94.1002 263.6 93.3002 263.5 92.2002C263.5 91.1002 263.6 90.1002 264 89.1002C265.4 85.5002 266.7 82.0002 268.1 78.5002C269.5 75.0002 270.8 71.5002 272.3 68.1002C272.9 66.5002 273.6 64.9002 274.4 63.4002C275.2 61.9002 275.9 60.4002 276.6 58.8002C277 57.9002 277.5 57.2002 278.2 56.6002C278.9 56.0002 279.8 55.8002 281 56.1002C282.1 56.4002 282.8 56.9002 283.1 57.7002C283.4 58.5002 283.5 59.3002 283.3 60.2002C283.1 61.0002 282.9 61.7002 282.5 62.4002C282.1 63.1002 281.7 63.8002 281.3 64.6002C280.9 65.4002 280.5 66.3002 280 67.4002C279.5 68.5002 279.1 69.6002 278.6 70.6002C278.2 71.7002 277.8 72.5002 277.5 73.3002C277.2 74.0002 277.1 74.4002 277.2 74.4002C278.5 73.1002 279.7 71.8002 280.9 70.4002C282.1 69.1002 283.4 67.8002 284.7 66.5002C286.1 65.1002 287.8 64.0002 289.8 63.0002C291.9 62.0002 293.8 61.8002 295.5 62.5002C297.2 63.2002 298.5 64.5002 299.3 66.5002C299.8 67.8002 300.1 69.1002 300.4 70.5002C300.6 71.8002 301 73.2002 301.4 74.5002C301.6 75.5002 301.9 76.5002 302.2 77.4002C302.5 78.3002 302.8 79.3002 303.2 80.2002C304.3 82.8002 306.2 83.6002 308.8 82.7002C310.2 82.2002 311.4 81.6002 312.7 81.0002C313.9 80.4002 315.1 79.7002 316.2 79.0002C318.8 77.9002 320.6 77.8002 321.9 78.9002Z" fill="#FFFFFE"/>
<path d="M370.4 24.2C370.6 23.8 370.7 23.4 370.8 23C370.9 22.6 371.1 22.1 371.2 21.5C369.8 21.5 368.6 21.5 367.5 21.4C366.4 21.4 365.3 21.4 364.2 21.5C358.2 21.9 352.1 22.3 346.1 22.7C340.1 23.1 334.1 23.6 328 24C327.6 24 327.2 24 326.9 24C326.5 24 326.2 24.1 326 24.2C325 25 323.9 25.5 322.9 25.6C321.9 25.7 320.8 25.7 319.7 25.4C318.6 25.2 317.6 24.9 316.5 24.6C315.5 24.3 314.4 24.1 313.4 24C312.5 23.9 311.8 23.6 311.4 23C310.9 22.4 310.7 21.7 310.8 20.9C311 19.3 312.2 18.4 314.1 18.3C323.6 17.6 333 17 342.4 16.4C351.8 15.8 361.2 15.1 370.7 14.5C371.3 14.4 372 14.3 372.6 14C373.2 13.7 373.7 13.4 374 13.1C374.6 12.4 375.1 11.6 375.6 10.9C376.1 10.2 376.9 9.79997 378.1 9.89997C379.4 9.99997 380.1 10.4 380.4 11.2C380.7 12 380.9 12.8 381.2 13.7C381.8 13.8 382.3 13.9 382.6 13.9C389.5 13.5 396.4 13.1 403.2 12.6C410 12.2 416.9 11.7 423.8 11.2C424.7 11.1 425.5 11.2 426.2 11.4C426.9 11.6 427.4 12.2 427.8 13C428.2 13.9 428.2 14.7 427.8 15.4C427.4 16.1 426.8 16.6 425.9 17C424.7 17.5 423.4 17.8 422 18C415.6 18.4 409.1 18.9 402.7 19.3C396.3 19.7 389.8 20.1 383.4 20.4C382 20.5 380.9 20.5 380.2 20.6C379.5 20.7 379 20.8 378.7 21.1C378.4 21.4 378.2 21.8 378 22.3C377.8 22.8 377.6 23.7 377.3 24.7C375.7 29.6 374.1 34.9 372.5 40.8C370.9 46.7 369.3 52.7 367.8 58.8C366.3 64.9 364.9 70.9 363.6 76.8C362.3 82.7 361.2 88.2 360.4 93.2C360.3 93.6 360.3 93.9 360.2 94.2C360.2 94.5 360.1 94.8 359.9 95.2C359.5 96.4 358.9 97.2 358.1 97.8C357.3 98.3 356.4 98.5 355.5 98.2C354.3 97.8 353.5 97.3 353.2 96.6C352.9 95.9 352.8 95 353 94C353.1 93.3 353.5 91.5 354.1 88.6C354.8 85.6 355.6 82 356.6 77.8C357.6 73.6 358.7 68.9 359.9 63.8C361.1 58.7 362.4 53.6 363.7 48.7C365 43.7 366.2 39.1 367.4 34.8C368.5 30.4 369.6 26.9 370.4 24.2Z" fill="#FFFFFE"/>
<path d="M423.3 69.2001C423.6 70.3001 423.4 71.3001 422.6 72.1001C421.8 72.9001 420.7 73.5001 419.1 73.8001C417.1 74.2001 415.5 74.4001 414.3 74.6001C413.1 74.8001 412 74.9001 411 75.0001C410 75.1001 408.9 75.2001 407.7 75.4001C406.5 75.5001 404.9 75.8001 402.9 76.1001C401.7 76.2001 400.8 76.5001 400.3 76.9001C399.7 77.3001 399.4 78.1001 399.2 79.3001C398.5 85.8001 395 90.5001 388.8 93.7001C387.2 94.5001 385.6 95.1001 384 95.5001C382.4 95.9001 380.7 95.6001 378.9 94.6001C377.1 93.6001 375.9 92.3001 375.3 90.7001C374.7 89.1001 374.5 87.4001 374.5 85.6001C374.5 85.3001 374.6 84.6001 374.7 83.5001C374.9 82.4001 375.2 81.1001 375.7 79.6001C376.2 78.1001 376.9 76.6001 377.8 74.9001C378.8 73.3001 380 71.8001 381.6 70.4001C383.9 68.4001 386.2 67.0001 388.5 66.2001C390.8 65.4001 392.9 65.6001 394.8 66.9001C396.1 67.8001 397.3 68.4001 398.6 68.7001C399.9 69.0001 401.1 69.2001 402.4 69.2001C403.7 69.2001 404.9 69.1001 406.2 68.9001C407.5 68.7001 408.8 68.5001 410.1 68.3001C411.4 68.1001 412.2 68.0001 412.7 67.9001C413.1 67.9001 413.5 67.8001 413.8 67.8001C414.1 67.8001 414.5 67.7001 414.9 67.6001C415.3 67.5001 416.2 67.3001 417.5 67.1001C420.8 66.5001 422.7 67.2001 423.3 69.2001ZM385.8 89.1001C386.9 88.6001 388 87.8001 389 86.8001C390 85.7001 390.8 84.5001 391.5 83.2001C392.2 81.8001 392.7 80.3001 392.9 78.7001C393.2 77.1001 393.2 75.5001 393 74.0001C392.8 73.2001 392.2 72.7001 391.2 72.6001C390.2 72.5001 389.2 72.7001 388.2 73.3001C386 74.5001 384.3 76.3001 383.3 78.7001C382.3 81.1001 381.5 83.5001 381.2 86.0001C381.2 87.2001 381.6 88.2001 382.5 88.9001C383.4 89.6001 384.5 89.6001 385.8 89.1001Z" fill="#FFFFFE"/>
<path d="M487.201 60.8C487.001 61.3 486.801 61.8 486.601 62.2C486.401 62.6 486.101 63.3 485.901 64C487.001 63.2 488.001 62.5 488.801 62C489.601 61.5 490.501 60.9 491.401 60.4C493.901 58.9 496.101 58.5 498.101 59.1C500.101 59.7 501.601 61.3 502.801 63.8C503.401 65.2 503.801 66.2 504.101 67C504.401 67.7 504.801 68.2 505.201 68.4C505.601 68.6 506.201 68.5 507.001 68.1C507.801 67.7 509.001 67.2 510.701 66.4C512.401 65.6 514.001 64.7 515.601 63.7C517.201 62.7 518.801 61.7 520.401 60.7C521.301 60.2 522.101 59.9 522.901 59.7C523.701 59.6 524.501 59.8 525.301 60.6C526.101 61.3 526.501 62.1 526.401 62.8C526.301 63.6 526.001 64.3 525.301 65C524.901 65.5 524.501 66 524.001 66.4C523.501 66.8 523.001 67.2 522.301 67.6C520.201 68.8 518.101 69.9 516.001 71C513.901 72.1 511.701 73.1 509.501 74C504.401 76.2 500.601 74.9 498.001 70.1C497.601 69.4 497.201 68.6 496.901 67.9C496.601 67.2 496.201 66.4 495.801 65.6C491.701 67.6 488.401 70.4 486.101 73.9C484.301 76.7 482.601 79.4 481.001 82.3C479.401 85.1 477.901 88 476.301 90.8C475.801 91.6 475.401 92.4 474.901 93.3C474.501 94.2 474.001 95 473.401 95.8C471.801 98.1 470.101 98.9 468.101 98.1C466.001 97.2 465.501 95.5 466.501 93C468.101 89 469.701 85 471.301 81.1C472.901 77.1 474.501 73.2 476.101 69.2C476.701 67.6 477.301 66 477.901 64.4C478.501 62.8 478.901 61.2 479.301 59.5C479.101 59.6 478.901 59.8 478.701 60C478.501 60.2 478.301 60.3 478.101 60.5C474.901 63.7 471.801 66.9 468.601 70.1C465.501 73.3 462.201 76.4 458.901 79.5C455.701 82.4 452.201 84.8 448.301 86.7C446.201 87.7 444.401 87.8 442.801 87C441.201 86.2 440.101 84.8 439.501 82.6C439.401 82.4 439.401 82.1 439.301 81.9C439.301 81.6 439.201 81.3 439.001 81C438.101 81.8 437.301 82.6 436.701 83.4C436.001 84.2 435.301 84.9 434.501 85.6C432.201 87.5 429.901 89.3 427.501 91.1C425.201 92.9 422.701 94.7 420.301 96.4C419.001 97.3 417.701 97.8 416.201 98.1C414.701 98.4 413.201 98 411.701 97.2C410.101 96.3 409.101 95.1 408.701 93.7C408.301 92.3 408.201 90.9 408.501 89.4C408.901 87.5 409.301 85.7 409.801 83.9C410.301 82.1 411.001 80.3 411.801 78.7C412.901 76.6 414.101 74.5 415.501 72.6C416.901 70.6 418.201 68.6 419.701 66.7C420.301 65.9 421.201 65.4 422.101 65.1C423.101 64.8 424.101 64.9 425.301 65.3C426.401 65.7 427.201 66.4 427.601 67.1C428.001 67.9 428.301 68.8 428.401 69.8C428.501 71 428.101 71.8 427.401 72.4C426.601 72.9 425.601 73.1 424.401 73C424.001 72.9 423.601 72.9 423.201 73.1C422.801 73.2 422.501 73.4 422.401 73.6C420.801 76 419.401 78.5 418.201 81C417.001 83.5 416.201 86.2 415.701 88.9C415.601 89.3 415.601 89.6 415.601 90C415.601 90.4 415.701 90.8 415.701 91.1C415.901 91.2 416.101 91.4 416.401 91.6C417.801 90.7 419.101 89.8 420.601 88.9C422.001 88 423.301 87.1 424.501 86C426.801 83.9 429.001 81.8 431.101 79.6C433.201 77.4 435.301 75.3 437.501 73.2C437.901 72.8 438.301 72.5 438.601 72.2C438.901 71.9 439.301 71.6 439.701 71.3C441.201 70.3 442.701 70 444.101 70.4C445.501 70.8 446.401 71.9 446.701 73.6C446.901 74.6 446.901 75.7 446.901 76.9C446.901 78.1 447.001 79.4 447.101 80.8C448.401 79.8 449.601 78.9 450.701 78.1C451.801 77.3 452.801 76.4 453.701 75.5C458.001 71.2 462.301 67 466.501 62.7C470.701 58.5 475.001 54.2 479.301 49.8C480.301 48.7 481.401 47.7 482.601 46.8C483.301 46.2 484.101 45.8 484.901 45.6C485.701 45.4 486.601 45.5 487.601 45.9C489.601 46.8 490.401 48.2 490.001 50.3C489.601 52.1 489.101 53.9 488.601 55.7C488.201 57.2 487.701 58.9 487.201 60.8Z" fill="#FFFFFE"/>
<path d="M175.302 349.1L184.402 339.7C186.102 337.9 187.502 336.2 187.502 334.4C187.502 332.3 186.102 330.9 184.002 330.9C181.902 330.9 180.402 332.1 179.502 334L175.102 331.4C176.802 327.6 180.302 325.8 183.902 325.8C188.502 325.8 192.702 328.8 192.702 334.2C192.702 337.4 190.802 340.2 188.302 342.7L183.102 347.9H193.102V353H175.302V349.1Z" fill="#FFFFFE"/>
<path d="M254.002 339.7C254.002 331.5 257.902 325.8 264.702 325.8C271.502 325.8 275.402 331.4 275.402 339.7C275.402 347.9 271.502 353.6 264.702 353.6C257.902 353.6 254.002 348 254.002 339.7ZM270.102 339.7C270.102 334.1 268.202 330.9 264.602 330.9C261.002 330.9 259.202 334 259.202 339.7C259.202 345.3 261.002 348.4 264.602 348.4C268.302 348.4 270.102 345.4 270.102 339.7Z" fill="#FFFFFE"/>
<path d="M335.602 349.1L344.702 339.7C346.402 337.9 347.802 336.2 347.802 334.4C347.802 332.3 346.402 330.9 344.302 330.9C342.202 330.9 340.702 332.1 339.802 334L335.402 331.4C337.102 327.6 340.602 325.8 344.202 325.8C348.802 325.8 353.002 328.8 353.002 334.2C353.002 337.4 351.102 340.2 348.602 342.7L343.402 347.9H353.402V353H335.602V349.1Z" fill="#FFFFFE"/>
<path d="M414.401 349.1L423.501 339.7C425.201 337.9 426.601 336.2 426.601 334.4C426.601 332.3 425.201 330.9 423.101 330.9C421.001 330.9 419.501 332.1 418.601 334L414.201 331.4C415.901 327.6 419.401 325.8 423.001 325.8C427.601 325.8 431.801 328.8 431.801 334.2C431.801 337.4 429.901 340.2 427.401 342.7L422.201 347.9H432.201V353H414.401V349.1Z" fill="#FFFFFE"/>
</svg>
