<svg width="669" height="239" viewBox="0 0 669 239" fill="none" xmlns="http://www.w3.org/2000/svg">
<path d="M323.447 19.5508C330.366 19.5508 336.207 21.7667 340.968 26.2215C345.729 30.6533 348.098 36.2623 348.098 43.0022C348.098 49.6961 345.682 55.3281 340.874 59.8753C336.113 64.3763 330.32 66.6384 323.447 66.6384C316.599 66.6384 310.782 64.3994 306.021 59.8753C301.26 55.3743 298.891 49.7422 298.891 43.0022C298.891 36.2392 301.26 30.6533 306.021 26.2215C310.829 21.7667 316.646 19.5508 323.447 19.5508ZM323.447 59.1597C327.833 59.1597 331.539 57.6594 334.541 54.6356C337.614 51.5657 339.138 47.6879 339.138 43.0022C339.138 38.3858 337.614 34.5542 334.541 31.5535C331.539 28.5067 327.833 27.0063 323.447 27.0063C319.108 27.0063 315.403 28.5067 312.353 31.5304C309.304 34.5542 307.733 38.3858 307.733 43.0022C307.733 47.6187 309.257 51.4734 312.33 54.5433C315.426 57.6132 319.108 59.1597 323.447 59.1597Z" fill="#1E2021"/>
<path d="M357.738 64.007V24.9289C357.738 22.9669 358.723 21.9975 360.717 21.9975H363.25C365.244 21.9975 366.229 22.9669 366.229 24.9289V30.0762L365.947 33.4462H366.135C367.284 30.0762 369.114 27.2602 371.647 24.9982C374.18 22.7592 376.994 21.6282 380.137 21.6282C382.06 21.6282 383.022 22.5976 383.022 24.5596V27.0525C383.022 29.0145 381.943 29.9839 379.762 29.9839C375.54 29.9839 372.28 31.8536 369.935 35.5698C367.636 39.2398 366.51 43.51 366.51 48.3573V63.9839C366.51 65.9459 365.525 66.9153 363.532 66.9153H360.74C358.747 66.9384 357.738 65.969 357.738 64.007Z" fill="#1E2021"/>
<path d="M395.829 13.0184H392.756C390.762 13.0184 389.777 12.049 389.777 10.087V7.15555C389.777 5.19357 390.762 4.22412 392.756 4.22412H395.829C397.822 4.22412 398.807 5.19357 398.807 7.15555V10.087C398.807 12.049 397.822 13.0184 395.829 13.0184ZM389.871 64.0069V24.9288C389.871 22.9668 390.856 21.9974 392.85 21.9974H395.641C397.635 21.9974 398.62 22.9668 398.62 24.9288V64.0069C398.62 65.9689 397.635 66.9383 395.641 66.9383H392.85C390.88 66.9383 389.871 65.9689 389.871 64.0069Z" fill="#1E2021"/>
<path d="M411.354 64.0069V7.15555C411.354 5.19357 412.339 4.22412 414.332 4.22412H417.123C419.047 4.22412 420.008 5.19357 420.008 7.15555V38.4319H426.599L437.693 23.867C438.467 22.6206 439.64 21.9974 441.211 21.9974H444.542C445.738 21.9974 446.535 22.3436 446.887 23.0592C447.239 23.7747 447.075 24.6057 446.348 25.552L433.706 41.8019V41.9865L448.318 63.3837C448.974 64.3993 449.115 65.2302 448.716 65.9227C448.318 66.6152 447.52 66.9383 446.324 66.9383H442.712C441.211 66.9383 440.038 66.2689 439.194 64.884L426.74 45.8643H419.961V63.9838C419.961 65.9458 419 66.9152 417.076 66.9152H414.285C412.362 66.9383 411.354 65.9689 411.354 64.0069Z" fill="#1E2021"/>
<path d="M289.815 36.5852H286.578C285.171 36.5852 284.045 35.4542 284.045 34.0923V6.64766C284.045 5.26273 285.194 4.15479 286.578 4.15479H289.815C291.222 4.15479 292.348 5.28581 292.348 6.64766V34.0693C292.348 35.4542 291.222 36.5852 289.815 36.5852Z" fill="#1E2021"/>
<path d="M267.533 66.615C254 66.615 243 55.951 243 42.8635C243 29.7528 254 19.0889 267.533 19.0889H269.339C270.747 19.0889 271.896 20.2199 271.896 21.6048V24.3978C271.896 25.7827 270.747 26.9137 269.339 26.9137H267.533C258.386 26.9137 250.928 34.0692 250.928 42.8866C250.928 51.7039 258.386 58.8594 267.533 58.8594C275.93 58.8594 282.896 52.835 283.998 45.0563C284.162 43.8329 285.218 42.9096 286.484 42.9096H289.393C290.917 42.9096 292.114 44.2253 291.926 45.7026C290.495 57.4514 280.105 66.615 267.533 66.615Z" fill="#1E2021"/>
<path d="M261.2 234.2L270 225.1C271.7 223.4 273 221.7 273 219.9C273 217.8 271.6 216.5 269.6 216.5C267.6 216.5 266.1 217.7 265.3 219.5L261 217C262.7 213.3 266 211.5 269.5 211.5C273.9 211.5 278 214.5 278 219.6C278 222.7 276.2 225.4 273.8 227.9L268.7 233H278.4V237.9H261.1V234.2H261.2Z" fill="#525252"/>
<path d="M310.301 225C310.301 217 314.101 211.6 320.601 211.6C327.201 211.6 330.901 217.1 330.901 225C330.901 233 327.201 238.4 320.601 238.4C314.101 238.5 310.301 233 310.301 225ZM325.901 225C325.901 219.5 324.101 216.5 320.601 216.5C317.101 216.5 315.401 219.5 315.401 225C315.401 230.5 317.201 233.5 320.601 233.5C324.001 233.5 325.901 230.5 325.901 225Z" fill="#525252"/>
<path d="M362.2 234.2L371 225.1C372.7 223.4 374 221.7 374 219.9C374 217.8 372.6 216.5 370.6 216.5C368.6 216.5 367.1 217.7 366.3 219.5L362 217C363.7 213.3 367 211.5 370.5 211.5C374.9 211.5 379 214.5 379 219.6C379 222.7 377.2 225.4 374.8 227.9L369.7 233H379.4V237.9H362.1V234.2H362.2Z" fill="#525252"/>
<path d="M411.3 234.2L420.1 225.1C421.8 223.4 423.1 221.7 423.1 219.9C423.1 217.8 421.7 216.5 419.7 216.5C417.7 216.5 416.2 217.7 415.4 219.5L411.1 217C412.8 213.3 416.1 211.5 419.6 211.5C424 211.5 428.1 214.5 428.1 219.6C428.1 222.7 426.3 225.4 423.9 227.9L418.8 233H428.5V237.9H411.2V234.2H411.3Z" fill="#525252"/>
<path d="M112.7 127.6C110.5 129.6 108.4 131.6 106.3 133.7C105 134.9 103.9 136.4 103 138C102.6 138.9 102.5 140.2 101.3 140.2C101.1 140.2 100.9 140.2 100.7 140.1C98.9 139.8 97.4 138.9 97 137C96.9 136.6 96.9 136.2 96.9 135.8C96.9 134.7 97.2 133.5 97.7 132.5C99.4 128.8 102 125.8 104.7 122.9C109.8 117.2 115.1 111.5 120.3 105.7C123.9 101.6 127.3 97.2 129.6 92.1C130 91.2 130.7 90.2 130.7 89.3C130.7 89 130.6 88.8 130.4 88.5C130.2 88.3 130 88.2 129.6 88.2C128.8 88.2 127.8 88.7 127 89C109.7 94.2 93.5 102 78 111.2C60.9 121.4 44.7 132.8 30.1 146.4C25.5 150.7 21.1 155.4 17.4 160.5C16.2 162.2 15.1 164 14.6 166C14.4 166.6 14.2999 167.1 14.2999 167.6C14.2999 168.6 14.9 168.9 16.6 169.1C18.5 169.3 20.3 169.4 22.2 169.4C27.1 169.4 32 168.9 36.9 168.4C49.2 167.3 61.4 166 73.7 166C76.7 166 79.6 166.1 82.6 166.3C88.4 166.6 94.2 166.9 99.7 168.7C101.8 169.3 103.8 170.2 105.4 171.6C107.4 173.1 108.4 174.7 108.4 176.6C108.4 177.6 108.1 178.9 107.5 180.1C106.2 182.8 104.3 185.1 102.3 187.2C96.4999 193.8 89.8 199.5 83.5 205.8C79.6 209.7 75.9 213.7 72.2 217.9C71.9 218.2 71.7 218.5 71.5 218.9C70.5 220.2 69.8 220.9 68.6 220.9C67.9 220.9 67.1 220.6 66.1 220C64.4 219.1 63.7 218.3 63.7 217C63.7 216.3 64 215.5 64.4 214.6C67 209.2 70.8 204.8 74.6 200.2C79.7 193.7 85.5 187.7 90.9 181.4C92.6 179.5 94.2 177.6 95.5 175.3C95.8 174.8 96 174.3 96 174C96 173.5 95.6 173.2 94.4 173.1C89.4 172.7 84.3 172.6 80.1 172.6C67.1 172.9 54.9 174.5 42.7 175.7C37.5 176.2 32.4 176.7 27.1 176.7C23.8 176.7 20.4 176.5 17.1 175.9C12.8 175.1 8.79998 173.8 5.09998 171.5C1.69998 169.2 0 166.5 0 163.4C0 161.7 0.599951 159.7 1.69995 157.8C5.19995 151.5 9.99993 146.4 15.2999 141.6C43.0999 116.2 74.2999 96.2 109.7 82.9C114.3 81.2 119 79.8 124 79.2C125 79.1 126 79 127 79C131.8 79 136.3 80.2 140.6 82.9C143.7 85 145.3 87.3 145.3 90.3C145.3 91.8 144.9 93.4 144 95.3C142.1 99.3 139.1 102.7 136.2 106C128.9 113.7 120.6 120.5 112.7 127.6Z" fill="#0E7D74"/>
<path d="M167.401 155C167.401 156.1 166.101 156.2 165.301 156.6C164.301 157 163.401 157.2 162.401 157.2C160.901 157.2 159.401 156.8 158.101 156.1C157.101 155.6 156.101 155.3 155.101 155.3C153.701 155.3 152.401 155.8 151.001 156.7C146.301 159.6 142.601 163.5 138.801 167.5C133.801 172.7 129.601 178.4 125.701 184.4C124.901 185.5 124.001 186.1 123.001 186.1C122.601 186.1 122.001 185.9 121.401 185.8C118.001 184.5 116.301 182.6 116.301 179.9C116.301 178.9 116.601 177.7 117.001 176.5C120.501 167.2 125.901 158.9 131.501 150.8C133.101 148.6 134.701 146.5 136.601 144.6C137.501 143.7 138.401 143.3 139.401 143.3C140.501 143.3 141.801 143.9 143.401 145C144.901 146 145.601 147 145.601 148.1C145.601 148.8 145.301 149.5 144.801 150.4C144.201 151.5 143.601 152.7 142.601 154.4C144.201 153.4 145.201 152.7 146.201 152.1C147.901 151.1 149.601 150.4 151.201 150.4C152.801 150.4 154.201 150.8 155.701 151.7C157.401 152.7 159.301 153.3 161.301 153.3C162.001 153.3 162.701 153.2 163.501 153C163.701 152.9 163.801 152.9 164.101 152.9C164.301 152.9 164.501 152.9 164.701 153C166.001 153.3 167.201 153.9 167.401 155Z" fill="#0E7D74"/>
<path d="M187.401 171C185.001 171 182.001 170 178.501 167.3C176.701 171.4 175.001 175.4 175.001 179.9V180.5C175.101 182.2 175.301 182.8 176.001 182.8C176.401 182.8 176.901 182.6 177.601 182.5C183.801 180.6 189.401 177.5 195.201 174.4C205.401 169 215.401 163.5 225.501 158.1C227.201 157.2 228.801 156.5 230.501 156.1C231.201 155.9 231.801 155.8 232.401 155.8C233.601 155.8 234.701 156.1 235.801 157.1C236.201 157.4 236.601 157.8 236.601 158.1C236.601 158.4 236.301 158.7 235.801 159.1C221.801 168.1 208.501 178 193.701 185.8C190.001 187.8 186.101 189.5 181.801 189.9C181.301 190 180.801 190 180.201 190C175.701 190 171.801 188.3 168.301 185.5C165.601 183.2 164.301 180.3 164.301 177.1C164.301 176.1 164.501 174.9 164.701 173.8C166.801 164.8 171.501 157 176.601 149.6C178.901 146.1 181.701 143.1 185.001 140.4C187.401 138.4 190.101 137.4 192.701 137.4C195.101 137.4 197.701 138.3 200.101 140C202.701 141.8 204.001 144.3 204.001 147C204.001 147.8 203.901 148.6 203.701 149.3C202.201 155.6 199.401 161.4 195.401 166.3C193.301 168.9 190.801 171 187.401 171ZM182.101 160.8C182.101 161.8 183.201 162.8 183.801 163.5C184.001 163.7 184.101 163.8 184.301 163.8C184.801 163.8 185.301 163.1 185.701 162.7C190.601 158 193.701 152.4 195.601 145.9C195.701 145.5 195.901 144.9 195.901 144.5C195.901 144.2 195.801 143.9 195.701 143.6C195.501 143.7 195.301 143.7 195.201 143.8C189.601 148.2 185.601 154 182.301 160.1C182.201 160.4 182.101 160.6 182.101 160.8Z" fill="#0E7D74"/>
<path d="M240.5 171C238.1 171 235.1 170 231.6 167.3C229.8 171.4 228.1 175.4 228.1 179.9V180.5C228.2 182.2 228.4 182.8 229.1 182.8C229.5 182.8 230 182.6 230.7 182.5C236.9 180.6 242.5 177.5 248.3 174.4C258.5 169 268.5 163.5 278.6 158.1C280.3 157.2 281.9 156.5 283.6 156.1C284.3 155.9 284.9 155.8 285.5 155.8C286.7 155.8 287.8 156.1 288.9 157.1C289.3 157.4 289.7 157.8 289.7 158.1C289.7 158.4 289.4 158.7 288.9 159.1C274.9 168.1 261.6 178 246.8 185.8C243.1 187.8 239.2 189.5 234.9 189.9C234.4 190 233.9 190 233.3 190C228.8 190 224.9 188.3 221.4 185.5C218.7 183.2 217.4 180.3 217.4 177.1C217.4 176.1 217.6 174.9 217.8 173.8C219.9 164.8 224.6 157 229.7 149.6C232 146.1 234.8 143.1 238.1 140.4C240.5 138.4 243.2 137.4 245.8 137.4C248.2 137.4 250.8 138.3 253.2 140C255.8 141.8 257.1 144.3 257.1 147C257.1 147.8 257 148.6 256.8 149.3C255.3 155.6 252.5 161.4 248.5 166.3C246.4 168.9 243.9 171 240.5 171ZM235.2 160.8C235.2 161.8 236.3 162.8 236.9 163.5C237.1 163.7 237.2 163.8 237.4 163.8C237.9 163.8 238.4 163.1 238.8 162.7C243.7 158 246.8 152.4 248.7 145.9C248.8 145.5 249 144.9 249 144.5C249 144.2 248.9 143.9 248.8 143.6C248.6 143.7 248.4 143.7 248.3 143.8C242.7 148.2 238.7 154 235.4 160.1C235.3 160.4 235.2 160.6 235.2 160.8Z" fill="#0E7D74"/>
<path d="M322.199 177.2C322.199 176.6 322.199 175.9 322.299 175.3C322.699 170.3 324.699 165.9 326.899 161.6C326.799 161.5 326.699 161.5 326.599 161.5C326.299 161.5 326.199 161.8 325.999 161.8L325.499 162.3C320.599 167 316.099 172 311.699 177C311.199 177.5 310.699 178 310.299 178.5C309.299 179.6 308.099 180.8 306.599 180.8C306.199 180.8 305.699 180.7 305.199 180.5C302.799 179.4 300.899 177.9 300.699 175C300.599 174.3 300.599 173.6 300.599 173C300.599 169.9 301.399 166.9 302.399 164C302.499 163.7 302.699 163.5 302.699 163.1C302.699 162.9 302.699 162.8 302.599 162.7C299.199 165.8 296.099 169.1 293.099 172.5C288.899 177.3 284.899 182.1 280.799 186.9C279.099 188.8 277.799 189.7 276.299 189.7C275.099 189.7 273.799 189.2 271.999 188.1C268.999 186.2 267.699 184.5 267.699 181.9C267.699 180.9 267.899 179.8 268.199 178.4C269.199 174.4 270.899 170.6 272.699 166.8C275.899 160.5 279.499 154.5 283.599 148.9C284.599 147.5 285.399 146.8 286.499 146.8C287.199 146.8 287.999 147.1 288.899 147.6C291.499 148.9 292.699 150.1 292.699 151.9C292.699 152.8 292.399 153.9 291.799 155.2C290.299 158.6 288.799 161.9 287.399 165.3C287.499 165.4 287.599 165.4 287.699 165.5C291.199 162.3 294.599 159.2 297.999 155.9C301.299 152.9 304.699 149.9 308.399 147.4C309.299 146.8 310.399 146.4 311.399 146.4C314.099 146.4 316.999 148.1 317.699 150.7C317.799 151 317.899 151.3 317.899 151.7C317.899 152.7 317.499 153.5 316.999 154.4C315.299 158.3 313.499 162.1 311.799 166C311.599 166.4 311.499 167 311.499 167.5V167.8C314.799 164.6 318.099 161.5 321.499 158.2C324.999 155 328.299 151.5 332.199 148.7C333.399 147.8 334.399 147.4 335.199 147.4C336.199 147.4 336.999 147.8 338.199 148.6C339.599 149.6 340.299 150.5 340.299 151.9C340.299 152.6 340.199 153.3 339.899 154.2C338.199 159 336.399 163.7 334.799 168.4C333.799 171.1 332.899 173.7 332.499 176.7C333.599 176.4 334.299 175.7 334.999 175.2C342.599 170.2 350.199 165 358.199 160.5C359.799 159.6 361.499 158.9 363.199 158.1C363.699 157.8 364.199 157.8 364.699 157.8C365.499 157.8 366.299 158.1 366.999 158.6C367.999 159.3 368.599 159.8 368.599 160.4C368.599 160.9 368.199 161.5 367.299 162.2C357.699 170.1 347.699 177.7 337.699 185.2C335.699 186.7 333.899 187.5 332.099 187.5C329.699 187.5 327.299 186.2 324.599 183.4C322.699 181.8 322.199 179.5 322.199 177.2Z" fill="#0E7D74"/>
<path d="M386.6 173.4C386.6 172.9 386.6 172.4 386.7 171.8C385.7 172.7 385.1 173.2 384.5 173.7C378.9 178.7 373.2 183.6 366.9 187.7C364.7 189.1 362.6 189.7 360.6 189.7C358 189.7 355.6 188.7 353 187C350.3 185.2 349.1 183.2 349.1 180.5C349.1 179.7 349.2 178.8 349.4 177.8C350.2 174.2 351.7 171.1 353.7 168.1C359.1 159.6 365.6 152 373.6 145.8C376.2 143.7 379.1 141.9 382.4 141C383.4 140.7 384.4 140.6 385.4 140.6C388.5 140.6 391.3 142 393.8 144.1C394.9 145.1 395.5 146.2 395.5 147.4C395.5 148.1 395.3 148.7 395.1 149.4C394.4 151.2 393.5 153 392.7 155C393.2 154.9 393.8 154.8 394.4 154.8C396.3 154.8 398.1 155.6 399.5 156.8C400.4 157.5 400.8 158.2 400.8 159.1C400.8 159.5 400.7 160 400.5 160.4C399.2 163.6 398 166.9 396.8 170.2C396.6 170.8 396.3 171.4 396.3 172.2C396.3 172.4 396.3 172.5 396.4 172.8C401.1 170.4 405.5 167.5 410 164.7C414.7 161.7 419.2 158.4 424.1 155.8C425.4 155.1 426.7 154.3 428.2 154.3C428.8 154.3 429.5 154.5 430.2 154.8C431.3 155.4 431.9 155.9 431.9 156.5C431.9 156.9 431.5 157.5 430.7 158.2C424 164.6 416.7 170.4 409.1 175.7C406.6 177.5 403.9 179 401 180.2C399.4 180.8 398 181.2 396.6 181.2C394.3 181.2 392.2 180.5 390.1 179.2C388 177.9 386.6 176 386.6 173.4ZM388.5 158.8C388.8 158.5 388.9 158.3 388.9 158.1C388.9 157.8 388.6 157.6 388.1 157.4C387.3 157.1 386.8 156.5 386.8 155.7C386.8 155.4 386.9 155 387.1 154.6C387.7 153.1 387.8 151.4 387.8 149.1C378.4 157 371.4 166.3 365.3 176.5C365.6 176.6 365.7 176.6 365.8 176.6H365.9C373.9 171.4 381.3 165.3 388.5 158.8Z" fill="#0E7D74"/>
<path d="M452.9 172.7V171.8C453.2 167.4 454.7 163.3 455.9 158.5C455 159.2 454.4 159.5 453.9 160C446.3 166.3 439.1 173.3 432.3 180.5C430.1 182.8 428 185.2 425.5 187.4C424.2 188.5 422.9 189 421.6 189C419.9 189 418.1 188.2 416.5 187.3C413.7 185.8 412.4 183.9 412.4 181.3C412.4 181 412.5 180.7 412.5 180.3C412.8 177.2 413.7 174.2 415 171.4C419.5 161.1 425.3 151.3 432.1 142.3C433.6 140.4 435 139.4 436.5 139.4C437.9 139.4 439.5 140.2 441.5 141.6C442.4 142.2 442.8 142.9 442.8 143.7C442.8 144.2 442.6 144.8 442.3 145.4C437.9 153.2 433.5 161.1 429.7 169.3C429.4 169.8 429 170.3 429 171.2V171.4C434.5 166.4 439.8 161.7 445.1 157C447.8 154.6 450.6 152.2 453.7 150.4C455.1 149.6 456.4 149.2 457.8 149.2C458.8 149.2 459.8 149.4 460.8 149.8C464.1 151.2 465.6 152.8 465.6 155.7C465.6 156.4 465.5 157.3 465.3 158.1C464.4 162.4 463.5 166.5 462.5 170.7C462.3 171.6 462.2 172.4 462.2 173.5C463.4 173.5 464.4 172.9 465.2 172.5C475.5 167.7 485.4 162.4 495.4 157.1C496.3 156.7 497.1 156.4 497.8 156.4C498.9 156.4 499.9 156.8 500.8 157.5C501.6 158 502 158.5 502 159C502 159.4 501.7 159.9 501 160.5C498.5 162.7 495.8 164.5 493 166.3C486.4 170.6 479.6 174.6 472.7 178.1C470.9 179.1 469.1 179.8 467.1 180.5C465.8 180.9 464.5 181.2 463.3 181.2C461 181.2 458.7 180.4 456.5 179.1C454.1 177.6 452.9 175.4 452.9 172.7Z" fill="#0E7D74"/>
<path d="M563.999 151.5C563.999 152.2 563.199 152.4 562.799 152.6C556.499 156.6 549.999 160.6 543.699 164.7L524.699 177.2C523.399 178.1 522.499 179 521.899 180.5C515.599 194 509.399 207.4 502.499 220.6C501.099 223.3 499.499 225.8 497.699 228.2C494.599 232.7 490.099 234.7 484.799 234.9H483.599C477.299 234.9 470.899 233.7 464.699 232.7C461.699 232.2 458.499 231.7 455.599 231.2C452.899 230.7 450.499 229.5 448.399 227.6C447.299 226.5 446.699 225.4 446.699 224.3C446.699 223.4 446.999 222.5 447.799 221.3C450.099 217.8 453.399 215.3 456.799 212.8C467.099 204.8 478.599 198.7 489.599 192C496.399 187.9 503.099 183.8 509.799 179.8C510.899 179.2 511.599 178.3 512.099 177.2C512.999 174.8 513.999 172.4 514.999 170.1C510.799 173.7 507.099 177.4 502.899 180.7C502.299 181.1 501.699 181.6 501.199 182C499.399 183.5 497.599 184.2 495.699 184.2C494.099 184.2 492.599 183.7 490.899 182.7C487.799 180.9 486.599 178.3 486.599 175.1C486.599 174.5 486.599 173.9 486.699 173.3C487.299 168.3 489.199 163.7 491.999 159.5C495.899 153.6 500.499 148.4 506.499 144.6C508.599 143.2 510.799 142.1 513.299 141.6C514.099 141.4 514.899 141.3 515.599 141.3C518.599 141.3 521.199 142.6 524.299 145.6C525.499 144.3 526.299 143.7 527.399 143.7C528.199 143.7 529.099 144 530.199 144.5C531.299 145 532.499 145.7 533.299 146.6C534.299 147.6 534.999 148.7 534.999 150C534.999 150.4 534.899 151 534.699 151.5C532.999 156.8 530.799 161.7 528.499 166.6C528.199 167.3 527.799 168.1 527.299 169.4C528.499 168.6 529.199 168.2 529.899 167.7C539.599 161.9 549.199 155.9 559.199 150.8C559.999 150.4 560.799 149.8 561.699 149.8C561.899 149.8 562.099 149.8 562.399 149.9C563.099 150.2 563.899 150.4 564.099 151.2C563.899 151.4 563.999 151.4 563.999 151.5ZM506.099 190C502.099 192.6 498.099 195.2 494.199 197.8C483.799 204.7 472.999 211 463.199 218.8C460.899 220.7 458.599 222.6 456.699 224.9C456.399 225.2 456.299 225.6 456.299 225.8C456.299 226.1 456.599 226.3 457.299 226.4C458.499 226.6 459.699 226.8 460.999 227.1C466.699 228.1 472.399 229.3 478.299 229.3H479.999C483.399 229.1 486.199 228 488.299 225.4C489.299 224.2 490.399 222.9 491.199 221.5C497.199 211.6 501.399 200.7 506.099 190ZM521.099 149.9C521.099 149.3 520.799 148.7 520.199 148.1C519.899 147.8 519.599 147.7 519.299 147.7C518.599 147.7 517.999 148.5 517.399 148.8C513.699 151.2 510.799 154.3 507.899 157.5C503.599 162.5 499.699 167.7 497.599 174.1C498.299 173.6 498.999 173.1 499.599 172.5C505.199 167.7 510.499 162.5 515.499 157.1C517.199 155.4 518.499 153.5 520.099 151.7C520.899 151.1 521.099 150.5 521.099 149.9Z" fill="#0E7D74"/>
<path d="M578.801 173.4C578.801 172.9 578.801 172.4 578.901 171.8C577.901 172.7 577.301 173.2 576.701 173.7C571.101 178.7 565.401 183.6 559.101 187.7C556.901 189.1 554.801 189.7 552.801 189.7C550.201 189.7 547.801 188.7 545.201 187C542.501 185.2 541.301 183.2 541.301 180.5C541.301 179.7 541.401 178.8 541.601 177.8C542.401 174.2 543.901 171.1 545.901 168.1C551.301 159.6 557.801 152 565.801 145.8C568.401 143.7 571.301 141.9 574.601 141C575.601 140.7 576.601 140.6 577.601 140.6C580.701 140.6 583.501 142 586.001 144.1C587.101 145.1 587.701 146.2 587.701 147.4C587.701 148.1 587.501 148.7 587.301 149.4C586.601 151.2 585.701 153 584.901 155C585.401 154.9 586.001 154.8 586.601 154.8C588.501 154.8 590.201 155.6 591.701 156.8C592.601 157.5 593.001 158.2 593.001 159.1C593.001 159.5 592.901 160 592.701 160.4C591.401 163.6 590.201 166.9 589.001 170.2C588.801 170.8 588.501 171.4 588.501 172.2C588.501 172.4 588.501 172.5 588.601 172.8C593.301 170.4 597.701 167.5 602.201 164.7C606.901 161.7 611.401 158.4 616.301 155.8C617.601 155.1 618.901 154.3 620.401 154.3C621.001 154.3 621.701 154.5 622.401 154.8C623.501 155.4 624.101 155.9 624.101 156.5C624.101 156.9 623.701 157.5 622.901 158.2C616.201 164.6 608.901 170.4 601.301 175.7C598.801 177.5 596.101 179 593.201 180.2C591.601 180.8 590.201 181.2 588.801 181.2C586.501 181.2 584.401 180.5 582.301 179.2C580.001 177.9 578.801 176 578.801 173.4ZM580.701 158.8C581.001 158.5 581.101 158.3 581.101 158.1C581.101 157.8 580.801 157.6 580.301 157.4C579.501 157.1 579.001 156.5 579.001 155.7C579.001 155.4 579.101 155 579.301 154.6C579.901 153.1 580.001 151.4 580.001 149.1C570.601 157 563.601 166.3 557.501 176.5C557.801 176.6 557.901 176.6 558.001 176.6H558.101C566.201 171.4 573.501 165.3 580.701 158.8Z" fill="#0E7D74"/>
<path d="M602 197.4C601.9 196.7 601.9 196 601.9 195.2C601.9 190.5 603.1 186 604.8 181.6C609.9 167.9 616.7 155 623.3 142C628.7 131.3 634.5 120.7 640.8 110.5C641.5 109.5 642.2 108.3 642.9 107.3C643.9 106.1 645.2 105.5 646.7 105.5C648.5 105.5 650.4 106.4 651.1 108.2C651.2 108.5 651.3 108.7 651.3 109.1C651.3 109.7 651 110.3 650.8 110.9C648.7 115.2 646.6 119.3 644.5 123.5C634.9 142.6 625 161.6 617 181.4C614.7 187 612.8 192.6 612.4 198.7C612.4 199.1 612.2 199.7 612.2 200.2C612.2 200.5 612.3 200.8 612.6 201C612.7 201.1 612.8 201.1 612.9 201.1C613.4 201.1 614 200.3 614.6 200C621.7 195.1 628.1 189.1 634.8 183.8C643.1 177.3 651.2 170.5 660.2 164.9C661.5 164 662.9 163.3 664.3 162.8C664.7 162.6 665.3 162.5 665.7 162.5C666.2 162.5 666.7 162.6 667.3 162.8C668.5 163.3 669 163.8 669 164.4C669 164.9 668.7 165.4 667.8 166.1C655.5 176.1 643.8 186.7 632.4 197.6C628.8 201 625.2 204.1 621.1 206.7C618.9 208 616.8 209.1 614.5 209.1C608 208.9 602.6 203.8 602 197.4Z" fill="#0E7D74"/>
<path d="M186.2 103.1C186.2 111 180.4 117.1 172.7 117.1H161.6V89.1001H172.7C180.4 89.1001 186.2 95.2001 186.2 103.1ZM180.9 103.1C180.9 97.9001 177.5 94.4001 172.7 94.4001H167.1V111.8H172.7C177.5 111.8 180.9 108.3 180.9 103.1Z" fill="#525252"/>
<path d="M227.8 111.8V117.1H210.5V89.1001H227.6V94.4001H216V100.4H226.6V105.6H216V111.9H227.8V111.8Z" fill="#525252"/>
<path d="M250.6 110.8L255.3 108C256.3 110.6 258.3 112.3 261.7 112.3C265 112.3 266.2 110.9 266.2 109.3C266.2 107.2 264.3 106.4 260.2 105.2C255.9 104 251.8 102.2 251.8 96.8C251.8 91.5 256.2 88.5 261 88.5C265.6 88.5 269.1 90.9 271 94.8L266.4 97.5C265.4 95.4 263.9 93.9 261 93.9C258.7 93.9 257.3 95.1 257.3 96.7C257.3 98.4 258.4 99.3 262.6 100.6C267 102 271.8 103.5 271.8 109.2C271.8 114.4 267.6 117.6 261.6 117.6C255.9 117.7 252.2 114.9 250.6 110.8Z" fill="#525252"/>
<path d="M301.1 89.1001V117.1H295.6V89.1001H301.1Z" fill="#525252"/>
<path d="M354.2 104.2C354.2 112.3 348.5 117.6 340.4 117.6C331.6 117.6 325.4 111.1 325.4 103.1C325.4 95 331.7 88.5 340.1 88.5C345.4 88.5 349.9 91.2 352.3 95L347.6 97.7C346.3 95.5 343.5 93.8 340.1 93.8C334.8 93.8 330.9 97.7 330.9 103C330.9 108.2 334.6 112.1 340.5 112.1C344.9 112.1 347.7 110 348.7 106.8H340.2V101.9H354.2V104.2Z" fill="#525252"/>
<path d="M400.2 89.1001V117.1H396L384 100V117.1H378.5V89.1001H382.7L394.7 106.2V89.1001H400.2Z" fill="#525252"/>
<path d="M474.799 94.4001H467.199V117.1H461.699V94.4001H454.199V89.1001H474.799V94.4001Z" fill="#525252"/>
<path d="M495.4 103.1C495.4 94.9 501.8 88.5 509.9 88.5C518 88.5 524.5 94.9 524.5 103.1C524.5 111.3 518 117.7 509.9 117.7C501.8 117.7 495.4 111.3 495.4 103.1ZM518.9 103.1C518.9 97.7 514.9 93.9 509.9 93.9C504.9 93.9 500.9 97.7 500.9 103.1C500.9 108.5 504.9 112.3 509.9 112.3C514.9 112.3 518.9 108.5 518.9 103.1Z" fill="#525252"/>
<path d="M548.299 108V89.2H553.799V107.6C553.799 110.3 555.199 112.4 558.999 112.4C562.799 112.4 564.199 110.4 564.199 107.6V89.2H569.699V108C569.699 114 565.099 117.7 558.999 117.7C552.799 117.7 548.299 114 548.299 108Z" fill="#525252"/>
<path d="M604.8 107.4H600.6V117.1H595.1V89.1001H606.3C611.5 89.1001 615.6 93.3001 615.6 98.4001C615.6 101.9 613.4 105.1 610.2 106.6L616.4 117.2H610.4L604.8 107.4ZM600.6 102.6H606.3C608.4 102.6 610.1 100.8 610.1 98.4001C610.1 96.0001 608.4 94.3001 606.3 94.3001H600.6V102.6Z" fill="#525252"/>
</svg>
